<?xml version="1.0" encoding="UTF-8"?>
<svg enable-background="new 0 0 36 36" version="1.1" viewBox="0 0 36 36" xml:space="preserve" xmlns="http://www.w3.org/2000/svg"><style type="text/css">
	.st0{display:none;}
</style><path d="m6 24.027c0 2.3618 0.7998 4.4033 2.3125 5.9043 2.0352 2.0205 5.2305 3.0439 9.501 3.0439 0.064453 0 0.12891 0 0.19336-4.883e-4 7.6211-0.054688 11.992-3.3159 11.993-8.9478 9.766e-4 -5.5771-5.5527-10.928-8.8643-13.622-0.13281-0.1084-0.14746-0.24658-0.14355-0.31934 0.0029297-0.072266 0.030273-0.20752 0.17188-0.30176l2.8916-1.9277c0.34668-0.23145 0.51367-0.65381 0.41895-1.0601s-0.43262-0.71045-0.8457-0.76367c-1.4453-0.18604-2.582-0.87402-3.6816-1.5396-1.1943-0.72217-2.4287-1.4692-3.9473-1.4692-3.2305 0-4.8174 2.9062-4.8838 3.0303-0.2373 0.4458-0.10449 0.99951 0.30957 1.2896l3.4521 2.4165c0.13867 0.09668 0.16309 0.23145 0.16602 0.30273s-0.012695 0.20703-0.14258 0.3125c-3.3252 2.6968-8.9023 8.0566-8.9014 13.651zm10.025-15.905-2.624-1.8369c0.50586-0.56494 1.377-1.2612 2.5986-1.2612 0.96094 0 1.8652 0.54688 2.9111 1.1802 0.67383 0.40771 1.3975 0.84521 2.2246 1.1953l-1.0811 0.7207c-0.6377 0.4248-1.0234 1.1064-1.0605 1.8706-0.036133 0.76514 0.28418 1.4819 0.87988 1.9663 2.4434 1.9878 8.127 7.1431 8.126 12.07-9.766e-4 5.6831-5.4424 6.915-10.007 6.9478-3.7979 0.047852-6.6221-0.82471-8.2715-2.4629-1.1426-1.1333-1.7217-2.6421-1.7217-4.4849-9.766e-4 -4.9434 5.707-10.107 8.1611-12.099 0.58691-0.47607 0.9082-1.1816 0.88184-1.9355-0.027344-0.75488-0.39746-1.4365-1.0176-1.8706z" fill="#e9e9ed"/><path d="m14.25 20.097c0 1.5396 1.2529 2.7925 2.792 2.7925h1.916c0.43652 0 0.79199 0.35596 0.79199 0.79297s-0.35547 0.79297-0.79199 0.79297h-2.1719c-0.16699 0-0.32227-0.076172-0.42383-0.20898-0.33691-0.43701-0.96484-0.51904-1.4023-0.18262-0.43848 0.33691-0.51953 0.96436-0.18359 1.4023 0.48438 0.62891 1.2168 0.98926 2.0098 0.98926h0.21387v0.024414c0 0.55225 0.44727 1 1 1s1-0.44775 1-1v-0.028686c1.5193-0.023071 2.75-1.2631 2.75-2.7887 0-1.54-1.2529-2.793-2.792-2.793h-1.916c-0.43652 0-0.79199-0.35547-0.79199-0.79248s0.35547-0.79297 0.79199-0.79297h2.1719c0.1875 0 0.3584 0.095703 0.45801 0.25586 0.28906 0.47021 0.9043 0.61719 1.376 0.32617 0.46973-0.29004 0.61523-0.90625 0.3252-1.376-0.46582-0.75537-1.2725-1.2061-2.1592-1.2061h-0.21387v-0.024414c0-0.55225-0.44727-1-1-1s-1 0.44775-1 1v0.028686c-1.5193 0.023072-2.75 1.2631-2.75 2.7887z" fill="#e9e9ed"/></svg>
