<?xml version="1.0" encoding="UTF-8" standalone="no"?>
<svg
   viewBox="0 0 60 48"
   x="0px"
   y="0px"
   version="1.1"
   id="svg18"
   width="60"
   height="48"
   xmlns="http://www.w3.org/2000/svg"
   xmlns:svg="http://www.w3.org/2000/svg"
   xmlns:rdf="http://www.w3.org/1999/02/22-rdf-syntax-ns#"
   xmlns:cc="http://creativecommons.org/ns#"
   xmlns:dc="http://purl.org/dc/elements/1.1/"
   
   >
   
  <defs
     id="defs22" />
  <title
     id="title2">Camera-cctv-technology-monitor</title>
     
  <path
     d="m 31.578149,30.143236 0.03852,-0.01887 c 0.257926,-0.117916 0.521686,-0.221681 0.790115,-0.318372 0.03501,-0.01297 0.06886,-0.02948 0.105039,-0.04245 l -4.760537,-4.809779 -5.352248,5.407611 4.301872,4.348729 a 10.573783,10.683157 0 0 1 4.877245,-4.566873 z"
     id="path4"
     fill="#33f3e40"
      />
  <ellipse
     cx="35.920872"
     cy="39.794632"
     id="circle6"
     rx="1.1670841"
     ry="1.1791564"
      />
  <polygon
     points="8.414,27 18,36.586 25.293,29.293 31.293,23.293 40.586,14 31,4.414 "
     id="polygon8"
     transform="matrix(1.1670841,0,0,1.1791564,-9.595413,-5.013311)" />
  <path
     d="m 2.6496335,36.139247 a 6.8017665,6.8721235 0 0 0 5.3020633,1.821796 L 0.42750533,30.36138 a 6.7865944,6.8567944 0 0 0 2.22212817,5.777867 z"
     id="path10"
      />
  <polygon
     points="58,42 58,43 60,43 60,32 58,32 58,34 "
     id="polygon12"
     transform="matrix(1.1670841,0,0,1.1791564,-9.595413,-5.013311)" />
  <path
     d="m 43.991256,38.575384 a 7.8673143,7.9486932 0 0 0 -0.162225,-0.813618 c -0.01401,-0.05542 -0.02684,-0.110841 -0.04202,-0.166261 a 8.2746266,8.3602188 0 0 0 -0.786615,-1.903159 8.1170703,8.2010327 0 0 0 -9.120763,-3.880603 c -0.03501,0.0094 -0.07119,0.01769 -0.106204,0.0283 a 8.1427462,8.2269742 0 0 0 -2.034227,0.87965 l -0.03968,0.02358 a 8.2442825,8.3295608 0 0 0 -1.727285,1.414988 l -0.03501,0.03891 a 8.1485815,8.2328699 0 0 0 -1.283793,1.847738 l -0.02334,0.04835 a 8.223275,8.3083359 0 0 0 -0.878814,3.701372 8.1637537,8.248199 0 0 0 15.249121,4.102285 8.2746266,8.3602188 0 0 0 0.786615,-1.903159 c 0.01518,-0.05542 0.02801,-0.11084 0.04202,-0.166261 a 7.8673143,7.9486932 0 0 0 0.162225,-0.813618 c 0.01051,-0.07429 0.02451,-0.147394 0.03384,-0.22286 a 7.4693386,7.5466009 0 0 0 0,-1.992775 c -0.0094,-0.07547 -0.02334,-0.148573 -0.03384,-0.22286 z m -8.070387,4.756717 a 3.5012525,3.5374692 0 1 1 3.501252,-3.537469 3.5012525,3.5374692 0 0 1 -3.501252,3.537469 z"
     id="path14"
      />
  <path
     d="m 45.856257,36.375078 c 0.06302,0.187486 0.116708,0.376151 0.172728,0.568353 0.03618,0.128528 0.06886,0.258236 0.0992,0.387943 0.04085,0.174515 0.08053,0.353747 0.116709,0.524724 0.03618,0.170978 0.05602,0.353747 0.07936,0.524725 0.01868,0.141499 0.04085,0.280639 0.05485,0.423317 0.03034,0.327806 0.04902,0.65679 0.04902,0.986954 0,0.330164 -0.01868,0.659149 -0.04902,0.986954 -0.01401,0.142678 -0.03618,0.281818 -0.05485,0.423317 -0.02334,0.175694 -0.04669,0.353747 -0.07936,0.524725 -0.03268,0.170977 -0.07236,0.353747 -0.116709,0.524724 -0.03034,0.129708 -0.06302,0.259415 -0.0992,0.387943 -0.05252,0.192202 -0.109706,0.380867 -0.172728,0.568353 -0.01401,0.04009 -0.02334,0.08136 -0.03735,0.117916 h 9.94239 v -7.067864 h -9.94239 c 0.01401,0.04009 0.02217,0.08136 0.03735,0.117916 z"
     id="path16"
      />
</svg>
