<?xml version="1.0" encoding="UTF-8"?>
<svg width="60" height="48" version="1.1" viewBox="0 0 60 48" xmlns="http://www.w3.org/2000/svg" xmlns:cc="http://creativecommons.org/ns#" xmlns:dc="http://purl.org/dc/elements/1.1/" xmlns:rdf="http://www.w3.org/1999/02/22-rdf-syntax-ns#">
 <title>Camera-cctv-technology-monitor</title>
 <path d="m31.578 30.143 0.03852-0.01887c0.25793-0.11792 0.52169-0.22168 0.79012-0.31837 0.03501-0.01297 0.06886-0.02948 0.10504-0.04245l-4.7605-4.8098-5.3522 5.4076 4.3019 4.3487a10.574 10.683 0 0 1 4.8772-4.5669z" stroke-width="1.1731"/>
 <ellipse cx="35.921" cy="39.795" rx="1.1671" ry="1.1792" stroke-width="1.1731"/>
 <polygon transform="matrix(1.1671 0 0 1.1792 -9.5954 -5.0133)" points="8.414 27 18 36.586 25.293 29.293 31.293 23.293 40.586 14 31 4.414"/>
 <path d="m2.6496 36.139a6.8018 6.8721 0 0 0 5.3021 1.8218l-7.5242-7.5997a6.7866 6.8568 0 0 0 2.2221 5.7779z" stroke-width="1.1731"/>
 <polygon transform="matrix(1.1671 0 0 1.1792 -9.5954 -5.0133)" points="58 42 58 43 60 43 60 32 58 32 58 34"/>
 <path d="m43.991 38.575a7.8673 7.9487 0 0 0-0.16222-0.81362c-0.01401-0.05542-0.02684-0.11084-0.04202-0.16626a8.2746 8.3602 0 0 0-0.78662-1.9032 8.1171 8.201 0 0 0-9.1208-3.8806c-0.03501 0.0094-0.07119 0.01769-0.1062 0.0283a8.1427 8.227 0 0 0-2.0342 0.87965l-0.03968 0.02358a8.2443 8.3296 0 0 0-1.7273 1.415l-0.03501 0.03891a8.1486 8.2329 0 0 0-1.2838 1.8477l-0.02334 0.04835a8.2233 8.3083 0 0 0-0.87881 3.7014 8.1638 8.2482 0 0 0 15.249 4.1023 8.2746 8.3602 0 0 0 0.78662-1.9032c0.01518-0.05542 0.02801-0.11084 0.04202-0.16626a7.8673 7.9487 0 0 0 0.16222-0.81362c0.01051-0.07429 0.02451-0.14739 0.03384-0.22286a7.4693 7.5466 0 0 0 0-1.9928c-0.0094-0.07547-0.02334-0.14857-0.03384-0.22286zm-8.0704 4.7567a3.5013 3.5375 0 1 1 3.5013-3.5375 3.5013 3.5375 0 0 1-3.5013 3.5375z" stroke-width="1.1731"/>
 <path d="m45.856 36.375c0.06302 0.18749 0.11671 0.37615 0.17273 0.56835 0.03618 0.12853 0.06886 0.25824 0.0992 0.38794 0.04085 0.17452 0.08053 0.35375 0.11671 0.52472 0.03618 0.17098 0.05602 0.35375 0.07936 0.52472 0.01868 0.1415 0.04085 0.28064 0.05485 0.42332 0.03034 0.32781 0.04902 0.65679 0.04902 0.98695s-0.01868 0.65915-0.04902 0.98695c-0.01401 0.14268-0.03618 0.28182-0.05485 0.42332-0.02334 0.17569-0.04669 0.35375-0.07936 0.52472-0.03268 0.17098-0.07236 0.35375-0.11671 0.52472-0.03034 0.12971-0.06302 0.25942-0.0992 0.38794-0.05252 0.1922-0.10971 0.38087-0.17273 0.56835-0.01401 0.04009-0.02334 0.08136-0.03735 0.11792h9.9424v-7.0679h-9.9424c0.01401 0.04009 0.02217 0.08136 0.03735 0.11792z" stroke-width="1.1731"/>
 <metadata>
  <rdf:RDF>
   <cc:Work rdf:about="">
    <dc:title>Camera-cctv-technology-monitor</dc:title>
   </cc:Work>
  </rdf:RDF>
 </metadata>
 <g fill="#6f6a6d" stroke-width=".10079">
  <path d="m5.8217 32.41-5.5169-5.5686 26.253-26.549 5.5181 5.5445c3.035 3.0495 5.5181 5.5926 5.5181 5.6514 0 0.11378-26.101 26.515-26.198 26.499-0.03154-5e-3 -2.54-2.515-5.5743-5.5777z"/>
  <path d="m5.9114 32.416c-3.0127-3.0233-5.4618-5.5416-5.4425-5.5962 0.031801-0.09007 5.1307-5.2596 20.676-20.962l5.4261-5.4812 0.35617 0.34099c1.3306 1.2739 10.516 10.676 10.516 10.765 0 0.1369-8.2163 8.505-18.343 18.682l-7.7102 7.7485z"/>
  <path d="m34.318 47.824c-2.9993-0.60391-5.4433-2.9661-6.2569-6.0476-0.2971-1.1252-0.29824-2.819-0.0027-3.9307 1.0001-3.7612 4.1723-6.2334 7.973-6.2135 3.6843 0.01935 6.8981 2.6315 7.7687 6.3143 0.17712 0.74923 0.20686 1.1263 0.17093 2.1669-0.03744 1.0844-0.08873 1.3932-0.36837 2.2173-0.42846 1.2628-0.98159 2.1745-1.9066 3.1427-1.9196 2.0093-4.6899 2.8918-7.3781 2.3506zm3.1768-4.8096c0.62068-0.31942 1.3989-1.1332 1.6932-1.7704 0.17677-0.38276 0.21958-0.66208 0.21964-1.4329 6.6e-5 -0.83007-0.03618-1.0349-0.27243-1.539-0.60838-1.2983-1.7765-2.0221-3.269-2.0254-0.72274-0.0016-0.89888 0.03685-1.4813 0.32358-0.73332 0.36101-1.3227 0.95537-1.693 1.7072-0.19703 0.40004-0.23446 0.63503-0.23628 1.4832-0.0019 0.88223 0.03111 1.0788 0.26472 1.5771 0.41508 0.88536 1.2313 1.594 2.2024 1.9122 0.13858 0.04541 0.66016 0.06955 1.1591 0.05365 0.74115-0.02362 0.99964-0.07654 1.413-0.28927z"/>
  <path d="m5.9101 32.419c-3.0134-3.0207-5.4625-5.5404-5.4425-5.5994 0.020005-0.058956 1.2861-1.3666 2.8136-2.906 2.2394-2.2568 17.892-18.098 22.233-22.501l1.0418-1.0567 0.76533 0.75435c2.3558 2.322 10.122 10.279 10.122 10.371 0 0.14225-7.8188 8.1082-17.94 18.278l-8.1134 8.1521z"/>
  <path d="m24.548 32.44-2.06-2.1143 5.2918-5.2796 2.2614 2.2983c1.2437 1.2641 2.2598 2.3299 2.2579 2.3685-0.0019 0.03861-0.3534 0.22894-0.7811 0.42295-1.6917 0.76736-3.441 2.2571-4.3556 3.7093-0.24945 0.39609-0.47622 0.71767-0.50394 0.71462-0.02772-3e-3 -0.97741-0.95697-2.1104-2.1198z"/>
  <path d="m34.949 47.864c-1.9235-0.22392-3.783-1.2521-5.1345-2.8391-0.61089-0.71734-1.4757-2.3671-1.6903-3.2245-1.0198-4.075 1.3191-8.3604 5.2868-9.6867 3.7301-1.2469 7.8705 0.46037 9.622 3.9676 0.70902 1.4197 0.80955 1.8897 0.80864 3.7804l-8.06e-4 1.7134-0.36031 0.92483c-0.47061 1.208-0.89707 1.8987-1.7327 2.8065-1.7417 1.8921-4.288 2.85-6.7989 2.5577zm2.5788-4.8166c0.55407-0.28641 1.2135-0.94278 1.589-1.5817 0.27545-0.46865 0.29118-0.55802 0.29118-1.6545 0-1.0637-0.02217-1.2005-0.26958-1.663-0.52376-0.97908-1.249-1.5539-2.299-1.8222-1.3128-0.33541-2.5145-0.01201-3.4568 0.93037-0.77894 0.77894-0.92893 1.1915-0.92893 2.5548 0 1.0862 0.01808 1.1917 0.28759 1.6779 0.36189 0.65291 0.86703 1.1483 1.577 1.5466 0.54142 0.30375 0.58016 0.31014 1.663 0.27448 0.9046-0.0298 1.1893-0.07818 1.5466-0.2629z"/>
  <path d="m45.946 43.083c0.17267-0.44996 0.37209-1.4248 0.46868-2.291 0.14529-1.303-0.02558-2.8915-0.46604-4.3325-0.05083-0.1663 0.22584-0.17638 4.8411-0.17638h4.895v6.9543h-4.899c-4.3589 0-4.8924-0.01702-4.8397-0.15442z"/>
  <path d="m58.104 39.206v-6.4504h2.3181v12.901h-2.3181z"/>
  <path d="m5.6945 37.738c-0.30488-0.079789-0.93984-0.33252-1.411-0.56162-1.1612-0.56461-2.5074-1.8905-3.0569-3.0108-0.46426-0.94647-0.77308-2.1506-0.77268-3.0129l3.061e-4 -0.66419 3.0989 3.1177c1.7044 1.7147 3.3442 3.3815 3.644 3.7039l0.54513 0.58623-0.74671-0.0066c-0.41069-0.0036-0.99615-0.07191-1.301-0.1517z"/>
  <path d="m35.403 40.762c-0.33533-0.18195-0.5808-0.62857-0.5808-1.0568 0-0.47984 0.56122-1.0028 1.0762-1.0028 0.45607 0 0.77959 0.19787 0.99056 0.60584 0.191 0.36936 0.1904 0.63746-0.0023 1.0101-0.27893 0.53939-0.94185 0.73762-1.4836 0.44365z"/>
  <path d="m5.9084 32.414c-3.0129-3.0163-5.4615-5.5323-5.4412-5.5911 0.020242-0.058809 1.1717-1.2537 2.5587-2.6553 1.3871-1.4016 6.465-6.5395 11.284-11.418 4.8194-4.8781 9.5497-9.663 10.512-10.633l1.7492-1.7638 5.1898 5.2409c2.8544 2.8825 5.3055 5.3879 5.4469 5.5676l0.25714 0.32663-0.32811 0.37888c-0.52478 0.60599-16.384 16.68-21.283 21.57l-4.4679 4.4607z"/>
 </g>
</svg>
