<?xml version="1.0" encoding="UTF-8" standalone="no"?><!DOCTYPE svg PUBLIC "-//W3C//DTD SVG 1.1//EN" "http://www.w3.org/Graphics/SVG/1.1/DTD/svg11.dtd"><svg width="100%" height="100%" viewBox="0 0 1000 1000" version="1.1" xmlns="http://www.w3.org/2000/svg" xmlns:xlink="http://www.w3.org/1999/xlink" xml:space="preserve" xmlns:serif="http://www.serif.com/" style="fill-rule:evenodd;clip-rule:evenodd;stroke-linecap:square;stroke-linejoin:round;stroke-miterlimit:1.5;"><path d="M437.665,752.377l-0,196.925l-115.001,-0" style="fill:none;stroke:#737373;stroke-width:11.61px;"/><path d="M268.977,905.615c-24.123,0 -43.688,19.561 -43.688,43.687c-0,19.303 12.517,35.678 29.879,41.456c2.181,0.404 2.887,-0.95 2.887,-2.101l-0,-8.133c-12.152,2.643 -14.683,-5.155 -14.683,-5.155c-1.987,-5.049 -4.853,-6.393 -4.853,-6.393c-3.964,-2.712 0.303,-2.654 0.303,-2.654c4.386,0.306 6.695,4.504 6.695,4.504c3.895,6.677 10.219,4.747 12.713,3.629c0.389,-2.821 1.521,-4.751 2.774,-5.839c-9.702,-1.111 -19.903,-4.857 -19.903,-21.593c-0,-4.772 1.707,-8.668 4.499,-11.726c-0.451,-1.103 -1.947,-5.548 0.426,-11.563c-0,0 3.67,-1.172 12.018,4.478c3.484,-0.968 7.219,-1.452 10.933,-1.47c3.713,0.018 7.452,0.502 10.943,1.47c8.341,-5.65 12.003,-4.478 12.003,-4.478c2.378,6.018 0.882,10.464 0.43,11.563c2.803,3.058 4.496,6.957 4.496,11.726c-0,16.78 -10.219,20.475 -19.947,21.556c1.566,1.355 2.997,4.012 2.997,8.09l-0,11.988c-0,1.162 0.699,2.527 2.916,2.097c17.347,-5.785 29.849,-22.156 29.849,-41.452c-0,-24.126 -19.561,-43.687 -43.687,-43.687Z" style="fill:#6f6a6d;fill-rule:nonzero;"/><path d="M854.971,17.796l-775.16,0c-24.102,0.53 -43.518,20.756 -43.065,44.859l0,658.154c-0.079,23.718 19.347,43.312 43.065,43.438l775.16,0c23.717,-0.126 43.143,-19.72 43.064,-43.438l0,-658.154c0.454,-24.103 -18.963,-44.329 -43.064,-44.859Zm14.354,44.859l0,69.98l-524.596,0l-75.09,-86.129l585.332,0c8.347,0.535 14.802,7.796 14.354,16.149Zm0,658.154c0.096,7.974 -6.38,14.618 -14.354,14.728l-775.16,0c-7.975,-0.11 -14.45,-6.754 -14.355,-14.728l0,-658.154c-0.447,-8.353 6.007,-15.614 14.355,-16.149l131.533,0c13.175,0.165 25.654,6.028 34.193,16.063l81.822,93.852c0.115,0.129 0.273,0.158 0.374,0.287c1.069,1.095 2.31,2.006 3.675,2.699c0.341,0.261 0.696,0.506 1.062,0.732c1.806,0.791 3.756,1.201 5.727,1.205l531.128,0l0,559.465Z" style="fill:#737373;"/><circle cx="826.261" cy="89.57" r="14.355" style="fill:#737373;"/><circle cx="768.842" cy="89.57" r="14.355" style="fill:#737373;"/><circle cx="711.422" cy="89.57" r="14.355" style="fill:#737373;"/><g id="g356"><g id="g179"><path id="path189" d="M459.791,681.095c-16.261,-0.844 -29.08,-2.715 -44.47,-8.489c-84.308,-31.626 -113.499,-133.798 -107.616,-214.9c1.866,-25.738 8.99,-52.5 19.534,-76.222c3.807,-8.563 7.737,-17.072 11.737,-25.546c1.453,-3.076 6.273,-7.4 6.312,-10.712c0.047,-3.993 -6.332,-11.196 -9.24,-16.929c-7.713,-15.21 -9.045,-33.338 1.21,-47.824c8.505,-12.014 25.699,-20.209 40.658,-22.989c28.542,-5.305 34.534,-5.109 45.112,-8.626c7.754,-2.578 12.016,-4.428 19.383,-8.212c27.591,-14.171 56.764,-24.257 88.286,-23.121c36.434,1.314 70.672,18.055 91.589,47.975c3.97,5.68 9.816,16.911 10.395,24.686c0.577,7.751 0.839,15.595 -0.044,23.317c-0.661,5.783 -6.92,15.934 -4.754,16.802c5.946,2.387 18.005,-1.439 25.74,-3.064c9.741,-2.046 23.239,-7.092 30.452,-13.024c5.195,-4.272 10.838,-8.074 15.488,-12.933c2.259,-2.36 3.683,-6.036 5.842,-7.911c0.012,-0.01 5.383,-6.276 6.31,-1.207c1.522,8.32 -7.336,15.639 -13.37,21.566c-15.564,15.287 -28.412,16.809 -49.882,23.528c-8.42,2.635 -17.94,0.593 -26.239,3.93c-3.052,1.227 -7.863,10.716 -10.392,13.361c-8.503,8.891 -17.954,16.751 -27.655,24.281c-22.274,17.289 -55.958,25.321 -82.922,30.073c-23.69,4.176 -48.463,5.956 -72.243,1.924c-11.285,-1.913 -10.882,-1.713 -22.197,-4.436c-3.726,-0.897 -8.732,-4.655 -11.348,-1.853c-4.562,4.887 -5.411,20.275 -6.579,26.023c-2.731,13.432 -3.811,29.04 -3.802,42.01c0.034,47.376 13.348,111.396 48.323,146.299c17.113,17.077 33.302,28.708 60.045,23.728c26.398,-4.916 50.885,-28.703 63.755,-50.668c5.021,-8.57 17.984,-30.197 7.358,-40.48c-5.694,-5.511 -14.493,-2.053 -19.666,1.929c-8.471,6.521 -14.393,16.239 -18.518,25.91c-1.152,2.701 -2.276,14.958 -7.846,10.709l-1.434,-1.093l0.208,-5.084c0.753,-18.428 7.859,-46.445 26.243,-55.967c26.112,-13.525 61.657,4.191 61.412,35.342c-0.175,22.361 -0.53,22.311 -8.645,43.182c-3.778,9.719 -16.539,23.498 -24.076,30.576c-11.237,10.553 -25.657,23.762 -40.627,30.267c-22.99,9.989 -46.403,15.192 -71.824,13.871l-0.003,0.001Zm10.68,-293.147c9.77,-2.159 20.437,-2.346 30.363,-4.374c21.605,-4.413 43.86,-13.292 62.401,-24.942c2.713,-1.705 24.31,-14.127 25.542,-19.543c0.502,-2.205 -4.28,-1.492 -6.487,-1.986c-5.463,-1.223 -11.06,-1.82 -16.497,-3.159c-13.479,-3.318 -26.668,-7.204 -39.622,-12.194c-15.483,-5.963 -30.719,-13.286 -44.602,-22.39c-4.601,-3.016 -9.244,-5.975 -13.736,-9.152c-1.447,-1.024 -6.362,-5.659 -8.027,-4.614c-7.414,4.657 -11.678,11.427 -17.911,17.575c-17.52,17.279 -39.751,49.998 -41.842,74.962c-0.362,4.323 8.132,3.025 12.246,4.4c10.773,3.603 23.282,5.545 34.509,5.857c7.886,0.219 15.959,1.261 23.663,-0.44l-0,-0Zm-118.102,-54.542c10.062,-15.649 20.395,-31.67 32.666,-45.736c5.121,-5.869 10.012,-11.155 15.329,-16.886c2.502,-2.696 5.917,-4.844 7.347,-8.233c0.483,-1.145 -2.465,-0.424 -3.707,-0.394c-6.653,0.159 -13.752,1.867 -20.204,3.147c-14.326,2.842 -28.685,9.289 -37.762,21.092c-7.113,9.249 -7.16,20.791 -4.322,31.64c0.479,1.833 6.063,15.271 8.923,17.475c0.719,0.554 1.238,-1.341 1.73,-2.105l-0,-0Zm245.474,-5.633c6.282,-9.772 10.21,-22.591 6.422,-33.994c-5.329,-16.047 -25.859,-26.852 -41.689,-31.096c-18.072,-4.845 -38.139,-3.157 -56.208,0.313c-9.871,1.895 -18.852,4.846 -28.149,8.915c-2.081,0.91 -4.088,1.982 -6.073,3.085c-1.616,0.898 -4.355,1.392 -4.719,2.911c-0.488,2.039 4.173,4.892 6.701,6.841c6.97,5.373 14.307,10.354 22.099,14.444c10.304,5.41 21.753,11.739 33.085,15.586c20.266,6.881 42.703,14.932 64.378,15.353l2.605,0.05l1.548,-2.408l-0,0Z" style="fill:#007cfe;fill-rule:nonzero;"/></g></g></svg>