<?xml version="1.0" encoding="UTF-8" standalone="no"?>
<!DOCTYPE svg PUBLIC "-//W3C//DTD SVG 1.1//EN" "http://www.w3.org/Graphics/SVG/1.1/DTD/svg11.dtd">
<svg width="100%" height="100%" viewBox="0 0 64 64" version="1.1" xmlns="http://www.w3.org/2000/svg" xmlns:xlink="http://www.w3.org/1999/xlink" xml:space="preserve" xmlns:serif="http://www.serif.com/" style="fill-rule:evenodd;clip-rule:evenodd;stroke-linejoin:round;stroke-miterlimit:2;">
    <path d="M59,6L5,6C3.321,6.037 1.968,7.446 2,9.125L2,54.974C1.994,56.626 3.348,57.991 5,58L59,58C60.652,57.991 62.006,56.626 62,54.974L62,9.125C62.032,7.446 60.679,6.037 59,6ZM60,9.125L60,14L23.455,14L18.224,8L59,8C59.582,8.037 60.031,8.543 60,9.125ZM60,54.974C60.007,55.53 59.556,55.992 59,56L5,56C4.444,55.992 3.993,55.53 4,54.974L4,9.125C3.969,8.543 4.418,8.037 5,8L14.163,8C15.081,8.012 15.95,8.42 16.545,9.119L22.245,15.657C22.253,15.666 22.264,15.668 22.271,15.677C22.345,15.753 22.432,15.817 22.527,15.865C22.551,15.883 22.575,15.9 22.601,15.916C22.727,15.971 22.863,16 23,16L60,16L60,54.974Z" style="fill:rgb(66,66,66);"/>
    <circle cx="57" cy="11" r="1" style="fill:rgb(66,66,66);"/>
    <circle cx="53" cy="11" r="1" style="fill:rgb(66,66,66);"/>
    <circle cx="49" cy="11" r="1" style="fill:rgb(66,66,66);"/>
    <g transform="matrix(1,0,0,1,-0.449275,5.33445)">
        <g id="g356">
            <path id="path135" d="M17.684,46.363C13.828,45.279 13.197,39.097 16.593,35.681C18.076,34.189 19.684,33.507 23.848,32.603C25.212,32.307 26.452,32.027 26.604,31.981C26.756,31.934 27.145,31.239 27.469,30.436C28.34,28.275 30.912,23.27 32.482,20.681C33.239,19.432 33.859,18.35 33.859,18.276C33.859,18.202 33.001,18.044 31.954,17.924C30.906,17.804 28.773,17.382 27.214,16.986C23.896,16.143 22.095,16.036 20.236,16.572C18.419,17.096 17.381,18.512 17.381,20.467C17.381,21.571 18.148,22.972 18.987,23.4C20.738,24.293 23.051,23.324 23.051,21.697C23.051,21.375 23.119,21.069 23.202,21.018C23.51,20.827 23.963,21.391 24.047,22.071C24.159,22.968 23.711,23.819 22.731,24.573C20.817,26.045 18.129,25.271 16.898,22.891C16.385,21.899 16.318,21.605 16.318,20.361C16.318,18.722 16.551,18.055 17.484,17.022C18.349,16.065 19.076,15.707 20.922,15.332C22.622,14.986 23.867,15.051 26.151,15.604C29.221,16.347 31.308,16.66 33.15,16.653C35.175,16.645 35.942,16.452 37.072,15.67C37.625,15.286 37.852,15.217 38.081,15.361C38.634,15.709 38.486,16.094 37.26,17.485C35.811,19.13 34.873,20.568 33.288,23.571C32.064,25.89 30.026,30.782 30.207,30.964C30.494,31.25 33.679,29.898 35.736,28.616C36.831,27.933 37.039,27.718 37.315,26.985C38.493,23.856 41.741,17.887 43.201,16.168C45.013,14.033 47.074,14.021 47.682,16.142C48.47,18.89 46.242,22.401 41.366,26.091L39.572,27.449L39.078,28.832C38.807,29.593 38.311,30.933 37.975,31.81C36.554,35.528 36.16,36.833 36.008,38.327C35.673,41.636 36.596,42.933 38.878,42.358C41.716,41.643 44.18,39.351 45.385,36.307C46.102,34.497 45.514,32.962 44.104,32.962C43.275,32.962 42.809,33.381 42.544,34.367C42.3,35.274 41.824,35.569 41.386,35.085C41.137,34.809 41.095,34.554 41.18,33.833C41.404,31.948 42.402,31.095 44.188,31.265C44.752,31.319 45.39,31.453 45.605,31.564C46.895,32.225 47.811,33.918 47.626,35.3C47.51,36.16 46.358,38.602 45.404,40.006C43.886,42.243 41.358,43.963 38.676,44.587C36.93,44.993 35.676,44.701 34.507,43.617C33.549,42.728 33.327,42.03 33.33,39.923C33.334,37.554 33.609,36.226 34.742,33.111C35.231,31.768 35.63,30.592 35.63,30.498C35.63,30.404 34.971,30.636 34.164,31.014C33.358,31.392 32.028,31.894 31.208,32.131C29.499,32.625 29.33,32.782 28.573,34.599C26.578,39.384 24.418,43.224 22.798,44.863C21.341,46.337 19.507,46.875 17.684,46.363ZM21.073,45.867C20.599,46.093 19.938,46.218 19.256,46.238C20.016,46.237 20.519,46.133 21.073,45.867ZM15.14,43.799C15.46,44.632 15.964,45.247 16.659,45.651C16.006,45.236 15.47,44.587 15.14,43.799ZM22.201,42.82C21.912,43.205 21.627,43.518 21.342,43.768C20.898,44.158 20.423,44.433 19.939,44.589C20.068,44.555 20.198,44.514 20.329,44.465C20.94,44.239 21.555,43.705 22.201,42.82ZM19.831,44.369C21.151,44.105 22.619,42.237 24.019,39.041C25.036,36.719 26.269,33.464 26.17,33.364C26.13,33.324 24.886,33.574 23.405,33.919C18.363,35.093 16.676,36.29 16.03,39.154C15.803,40.158 15.785,40.612 15.938,41.478C16.344,43.783 17.706,44.794 19.831,44.369L19.831,44.369ZM15.61,40.714C15.636,42.37 16.349,43.65 17.413,44.28C16.315,43.605 15.636,42.289 15.61,40.714ZM45.844,34.273C45.963,34.86 45.91,35.56 45.632,36.287C44.32,39.725 41.11,42.489 38.217,42.673C37.208,42.738 37.082,42.703 36.572,42.227C36.137,41.821 35.854,41.254 35.722,40.526C35.854,41.254 36.137,41.821 36.572,42.227C37.082,42.703 37.208,42.738 38.217,42.673C41.11,42.489 44.32,39.725 45.632,36.287C45.91,35.56 45.963,34.86 45.844,34.273ZM35.869,30.137C35.897,30.323 35.601,31.355 35.177,32.535C33.948,35.954 33.671,37.105 33.558,39.263C33.505,40.277 33.509,40.981 33.607,41.535C33.509,40.981 33.505,40.277 33.558,39.263C33.671,37.105 33.948,35.954 35.177,32.535C35.601,31.355 35.897,30.323 35.869,30.137ZM17.457,36.155C17.146,36.422 16.883,36.692 16.694,36.95C16.108,37.748 15.609,39.436 15.609,40.618C15.609,40.646 15.609,40.674 15.61,40.702L15.609,40.618C15.609,39.436 16.108,37.748 16.694,36.95C16.883,36.692 17.146,36.422 17.457,36.155ZM34.194,18.261C34.207,18.348 34.164,18.449 34.078,18.57C32.515,20.781 28.836,27.671 27.645,30.618C26.963,32.305 27.439,32.053 23.052,33.049C18.135,34.165 16.237,35.468 15.105,38.505C14.895,39.068 14.788,39.57 14.745,40.264C14.802,39.613 14.922,38.996 15.105,38.505C16.237,35.468 18.135,34.165 23.052,33.049C27.439,32.053 26.963,32.305 27.645,30.618C28.836,27.671 32.515,20.781 34.078,18.57C34.164,18.449 34.207,18.348 34.194,18.261ZM26.278,33.184C25.93,33.05 21.541,34.033 20.169,34.552C19.207,34.915 18.198,35.522 17.462,36.151C18.198,35.522 19.207,34.915 20.169,34.552C21.541,34.033 25.93,33.05 26.278,33.184ZM26.403,33.403C26.399,33.653 26.222,34.173 25.798,35.296C26.222,34.173 26.399,33.653 26.403,33.403ZM47.275,34.128C47.213,33.816 47.107,33.51 46.957,33.201C46.086,31.402 43.035,30.83 41.969,32.267C41.498,32.903 41.29,34.039 41.418,34.658C41.29,34.039 41.498,32.903 41.969,32.267C43.035,30.83 46.086,31.402 46.957,33.201C47.107,33.51 47.213,33.816 47.275,34.128ZM47.424,16.255C47.374,15.985 47.3,15.755 47.202,15.588C46.464,14.339 44.941,14.581 43.507,16.176C42.684,17.09 40.809,20.128 39.653,22.419C38.84,24.029 37.402,27.248 37.402,27.456C37.402,28.319 30.515,31.815 29.943,31.243C29.935,31.235 29.929,31.225 29.925,31.211C29.929,31.225 29.935,31.235 29.943,31.243C30.515,31.815 37.402,28.319 37.402,27.456C37.402,27.248 38.84,24.029 39.653,22.419C40.809,20.128 42.684,17.091 43.507,16.176C44.941,14.581 46.464,14.339 47.202,15.588C47.3,15.755 47.374,15.985 47.424,16.255ZM43.085,22.907C45.213,20.751 45.948,19.621 46.181,18.146C46.307,17.348 46.033,16.484 45.653,16.484C45.119,16.484 42.169,21.087 41.312,23.259C41.225,23.479 41.026,23.959 40.87,24.324C40.39,25.449 40.89,25.129 43.085,22.907ZM17.294,21.25C17.506,22.304 18.071,23.2 18.81,23.577C19.636,23.998 21.248,24.042 21.981,23.663C22.728,23.277 23.228,22.55 23.228,21.849C23.228,21.087 23.483,21.137 23.63,21.675C23.483,21.137 23.228,21.087 23.228,21.849C23.228,22.55 22.728,23.277 21.981,23.663C21.248,24.042 19.636,23.998 18.81,23.577C18.071,23.2 17.506,22.304 17.294,21.25ZM38.108,15.704C38.046,15.484 37.583,15.61 36.732,16.139C35.61,16.837 34.202,17.039 31.85,16.84C30.239,16.704 26.548,16.054 26.215,15.848C26.144,15.804 25.343,15.657 24.435,15.522C23.019,15.311 22.563,15.312 21.222,15.528C19.321,15.835 18.531,16.218 17.588,17.289C16.654,18.349 16.432,19.06 16.534,20.653C16.557,21.012 16.611,21.355 16.692,21.679C16.611,21.355 16.557,21.012 16.534,20.653C16.432,19.06 16.654,18.349 17.588,17.289C18.531,16.218 19.321,15.835 21.222,15.528C22.563,15.312 23.019,15.311 24.435,15.522C25.343,15.657 26.144,15.804 26.215,15.848C26.548,16.054 30.239,16.704 31.85,16.84C34.202,17.039 35.61,16.837 36.732,16.139C37.583,15.611 38.046,15.484 38.108,15.704ZM47.433,16.302L47.434,16.31C47.434,16.31 47.433,16.302 47.433,16.302ZM45.413,16.286L45.399,16.294L45.413,16.286Z" style="fill:rgb(173,29,22);fill-rule:nonzero;"/>
        </g>
    </g>
</svg>
