<?xml version="1.0" encoding="UTF-8" standalone="no"?><!DOCTYPE svg PUBLIC "-//W3C//DTD SVG 1.1//EN" "http://www.w3.org/Graphics/SVG/1.1/DTD/svg11.dtd"><svg width="100%" height="100%" viewBox="0 0 64 64" version="1.1" xmlns="http://www.w3.org/2000/svg" xmlns:xlink="http://www.w3.org/1999/xlink" xml:space="preserve" xmlns:serif="http://www.serif.com/" style="fill-rule:evenodd;clip-rule:evenodd;stroke-linejoin:round;stroke-miterlimit:2;"><path d="M59,6l-54,0c-1.679,0.037 -3.032,1.446 -3,3.125l0,45.849c-0.006,1.652 1.348,3.017 3,3.026l54,-0c1.652,-0.009 3.006,-1.374 3,-3.026l0,-45.849c0.032,-1.679 -1.321,-3.088 -3,-3.125Zm1,3.125l0,4.875l-36.545,0l-5.231,-6l40.776,0c0.582,0.037 1.031,0.543 1,1.125Zm0,45.849c0.007,0.556 -0.444,1.018 -1,1.026l-54,-0c-0.556,-0.008 -1.007,-0.47 -1,-1.026l0,-45.849c-0.031,-0.582 0.418,-1.088 1,-1.125l9.163,0c0.918,0.012 1.787,0.42 2.382,1.119l5.7,6.538c0.008,0.009 0.019,0.011 0.026,0.02c0.074,0.076 0.161,0.14 0.256,0.188c0.024,0.018 0.048,0.035 0.074,0.051c0.126,0.055 0.262,0.084 0.399,0.084l37,0l0,38.974Z" style="fill:#424242;"/><circle cx="57" cy="11" r="1" style="fill:#424242;"/><circle cx="53" cy="11" r="1" style="fill:#424242;"/><circle cx="49" cy="11" r="1" style="fill:#424242;"/><g id="g356"><g id="g179"><path id="path189" d="M31.6,51.872c-1.114,-0.057 -1.992,-0.185 -3.046,-0.581c-5.775,-2.166 -7.774,-9.165 -7.372,-14.72c0.128,-1.763 0.616,-3.596 1.338,-5.221c0.261,-0.586 0.53,-1.169 0.804,-1.75c0.1,-0.21 0.43,-0.506 0.433,-0.733c0.003,-0.274 -0.434,-0.767 -0.633,-1.16c-0.528,-1.042 -0.62,-2.283 0.083,-3.276c0.582,-0.823 1.76,-1.384 2.785,-1.574c1.955,-0.364 2.365,-0.35 3.09,-0.591c0.531,-0.177 0.823,-0.303 1.327,-0.563c1.89,-0.97 3.888,-1.661 6.048,-1.583c2.495,0.09 4.84,1.236 6.273,3.286c0.272,0.389 0.672,1.158 0.712,1.691c0.04,0.531 0.058,1.068 -0.003,1.597c-0.045,0.396 -0.474,1.091 -0.326,1.151c0.408,0.163 1.234,-0.099 1.764,-0.21c0.667,-0.14 1.591,-0.486 2.085,-0.892c0.356,-0.293 0.743,-0.553 1.061,-0.886c0.155,-0.162 0.253,-0.414 0.4,-0.542c0.001,-0.001 0.369,-0.43 0.433,-0.083c0.104,0.57 -0.503,1.072 -0.916,1.477c-1.066,1.048 -1.946,1.152 -3.417,1.612c-0.577,0.181 -1.229,0.041 -1.797,0.269c-0.209,0.084 -0.539,0.734 -0.712,0.915c-0.582,0.609 -1.23,1.148 -1.894,1.664c-1.526,1.184 -3.833,1.734 -5.68,2.059c-1.623,0.287 -3.32,0.408 -4.948,0.132c-0.773,-0.131 -0.746,-0.117 -1.521,-0.304c-0.255,-0.061 -0.598,-0.318 -0.777,-0.127c-0.313,0.335 -0.371,1.389 -0.451,1.783c-0.187,0.92 -0.261,1.989 -0.26,2.878c0.002,3.245 0.914,7.63 3.31,10.02c1.172,1.17 2.281,1.967 4.113,1.626c1.808,-0.337 3.485,-1.966 4.367,-3.471c0.343,-0.587 1.231,-2.068 0.504,-2.773c-0.39,-0.377 -0.993,-0.14 -1.348,0.133c-0.58,0.446 -0.985,1.112 -1.268,1.774c-0.079,0.185 -0.156,1.025 -0.537,0.734l-0.099,-0.075l0.015,-0.348c0.051,-1.263 0.538,-3.182 1.797,-3.834c1.789,-0.926 4.224,0.287 4.207,2.421c-0.012,1.532 -0.037,1.528 -0.592,2.958c-0.259,0.666 -1.133,1.609 -1.65,2.094c-0.769,0.723 -1.757,1.628 -2.782,2.073c-1.575,0.685 -3.179,1.041 -4.92,0.95l-0,0Zm0.731,-20.079c0.67,-0.148 1.4,-0.161 2.08,-0.3c1.48,-0.302 3.004,-0.91 4.274,-1.708c0.186,-0.117 1.665,-0.968 1.75,-1.339c0.034,-0.151 -0.293,-0.102 -0.444,-0.136c-0.375,-0.083 -0.758,-0.124 -1.13,-0.216c-0.924,-0.227 -1.827,-0.494 -2.714,-0.835c-1.061,-0.409 -2.105,-0.91 -3.056,-1.534c-0.315,-0.207 -0.633,-0.409 -0.94,-0.627c-0.099,-0.07 -0.436,-0.387 -0.55,-0.316c-0.508,0.319 -0.8,0.783 -1.227,1.204c-1.2,1.184 -2.723,3.425 -2.866,5.135c-0.025,0.296 0.557,0.207 0.839,0.301c0.738,0.247 1.594,0.38 2.364,0.401c0.54,0.015 1.093,0.087 1.62,-0.03l0,-0Zm-8.089,-3.736c0.689,-1.072 1.397,-2.169 2.237,-3.133c0.351,-0.402 0.686,-0.764 1.05,-1.156c0.172,-0.185 0.406,-0.332 0.503,-0.564c0.034,-0.079 -0.168,-0.029 -0.253,-0.027c-0.456,0.011 -0.942,0.128 -1.384,0.215c-0.982,0.195 -1.965,0.637 -2.587,1.445c-0.487,0.634 -0.49,1.424 -0.296,2.167c0.033,0.126 0.415,1.046 0.611,1.197c0.05,0.038 0.085,-0.092 0.119,-0.144l-0,0Zm16.814,-0.386c0.43,-0.669 0.699,-1.547 0.44,-2.328c-0.365,-1.099 -1.772,-1.839 -2.856,-2.13c-1.238,-0.332 -2.612,-0.216 -3.85,0.021c-0.676,0.13 -1.291,0.332 -1.928,0.611c-0.142,0.062 -0.28,0.136 -0.416,0.211c-0.111,0.062 -0.298,0.096 -0.323,0.2c-0.034,0.139 0.286,0.335 0.459,0.468c0.477,0.368 0.98,0.709 1.513,0.99c0.706,0.37 1.491,0.804 2.267,1.067c1.388,0.471 2.925,1.023 4.409,1.052l0.179,0.003l0.106,-0.165l-0,0Z" style="fill:#007cfe;fill-rule:nonzero;"/></g></g></svg>