<?xml version="1.0" encoding="UTF-8" standalone="no"?><!DOCTYPE svg PUBLIC "-//W3C//DTD SVG 1.1//EN" "http://www.w3.org/Graphics/SVG/1.1/DTD/svg11.dtd"><svg width="100%" height="100%" viewBox="0 0 1000 1000" version="1.1" xmlns="http://www.w3.org/2000/svg" xmlns:xlink="http://www.w3.org/1999/xlink" xml:space="preserve" xmlns:serif="http://www.serif.com/" style="fill-rule:evenodd;clip-rule:evenodd;stroke-linecap:square;stroke-linejoin:round;stroke-miterlimit:1.5;"><path d="M386.214,752.377l-0,196.925l179.313,0" style="fill:none;stroke:#737373;stroke-width:13.82px;"/><path d="M618.573,905.615c-24.123,0 -43.688,19.561 -43.688,43.687c0,19.303 12.517,35.678 29.879,41.456c2.181,0.404 2.887,-0.95 2.887,-2.101l-0,-8.133c-12.152,2.643 -14.683,-5.155 -14.683,-5.155c-1.987,-5.049 -4.853,-6.393 -4.853,-6.393c-3.964,-2.712 0.303,-2.654 0.303,-2.654c4.386,0.306 6.695,4.504 6.695,4.504c3.895,6.677 10.219,4.747 12.713,3.629c0.389,-2.821 1.521,-4.751 2.774,-5.839c-9.702,-1.111 -19.903,-4.857 -19.903,-21.593c-0,-4.772 1.707,-8.668 4.499,-11.726c-0.451,-1.103 -1.947,-5.548 0.426,-11.563c0,0 3.67,-1.172 12.018,4.478c3.484,-0.968 7.219,-1.452 10.933,-1.47c3.713,0.018 7.452,0.502 10.943,1.47c8.341,-5.65 12.003,-4.478 12.003,-4.478c2.378,6.018 0.882,10.464 0.43,11.563c2.803,3.058 4.496,6.957 4.496,11.726c0,16.78 -10.219,20.475 -19.947,21.556c1.566,1.355 2.997,4.012 2.997,8.09l-0,11.988c-0,1.162 0.699,2.527 2.916,2.097c17.347,-5.785 29.849,-22.156 29.849,-41.452c0,-24.126 -19.561,-43.687 -43.687,-43.687Z" style="fill:#6f6a6d;fill-rule:nonzero;"/><path d="M854.971,17.796l-775.16,0c-24.102,0.53 -43.518,20.756 -43.065,44.859l0,658.154c-0.079,23.718 19.347,43.312 43.065,43.438l775.16,-0c23.717,-0.126 43.143,-19.72 43.064,-43.438l0,-658.154c0.454,-24.103 -18.963,-44.329 -43.064,-44.859Zm14.354,44.859l0,69.98l-524.596,-0l-75.09,-86.129l585.332,-0c8.347,0.535 14.802,7.796 14.354,16.149Zm0,658.154c0.096,7.974 -6.38,14.618 -14.354,14.728l-775.16,-0c-7.975,-0.11 -14.45,-6.754 -14.355,-14.728l-0,-658.154c-0.447,-8.353 6.007,-15.614 14.355,-16.149l131.533,-0c13.175,0.165 25.654,6.028 34.193,16.063l81.822,93.852c0.115,0.129 0.273,0.158 0.374,0.287c1.069,1.095 2.31,2.006 3.675,2.699c0.341,0.261 0.696,0.506 1.062,0.732c1.806,0.791 3.756,1.201 5.727,1.205l531.128,0l0,559.465Z" style="fill:#737373;"/><circle cx="826.261" cy="89.57" r="14.355" style="fill:#737373;"/><circle cx="768.842" cy="89.57" r="14.355" style="fill:#737373;"/><circle cx="711.422" cy="89.57" r="14.355" style="fill:#737373;"/><g id="g356"><path id="path135" d="M255.442,673.772c-55.349,-15.557 -64.413,-104.293 -15.662,-153.342c21.28,-21.411 44.373,-31.207 104.139,-44.175c19.584,-4.25 37.388,-8.271 39.564,-8.936c2.176,-0.665 7.761,-10.645 12.41,-22.177c12.507,-31.021 49.425,-102.857 71.967,-140.033c10.869,-17.924 19.761,-33.456 19.761,-34.514c-0,-1.059 -12.304,-3.335 -27.342,-5.058c-15.038,-1.722 -45.654,-7.783 -68.036,-13.467c-47.633,-12.099 -73.486,-13.631 -100.176,-5.937c-26.084,7.519 -40.983,27.845 -40.983,55.91c0,15.845 11.015,35.954 23.06,42.099c25.137,12.824 58.329,-1.084 58.329,-24.441c0,-4.625 0.976,-9.012 2.169,-9.75c4.43,-2.738 10.925,5.353 12.137,15.119c1.599,12.879 -4.823,25.085 -18.894,35.91c-27.479,21.14 -66.054,10.017 -83.723,-24.141c-7.369,-14.246 -8.338,-18.466 -8.338,-36.325c-0,-23.515 3.346,-33.091 16.747,-47.924c12.416,-13.743 22.847,-18.872 49.345,-24.263c24.399,-4.964 42.272,-4.034 75.067,3.906c44.07,10.669 74.021,15.157 100.464,15.054c29.075,-0.112 40.086,-2.872 56.297,-14.106c7.948,-5.508 11.203,-6.503 14.492,-4.432c7.94,5 5.806,10.522 -11.788,30.494c-20.796,23.608 -34.267,44.248 -57.015,87.356c-17.569,33.295 -46.835,103.516 -44.229,106.123c4.116,4.115 49.845,-15.305 79.366,-33.705c15.723,-9.799 18.707,-12.881 22.671,-23.412c16.91,-44.919 63.526,-130.599 84.483,-155.279c26.018,-30.641 55.603,-30.813 64.332,-0.375c11.316,39.454 -20.677,89.851 -90.667,142.823l-25.76,19.497l-7.079,19.853c-3.894,10.919 -11.019,30.154 -15.833,42.744c-20.41,53.37 -26.065,72.105 -28.239,93.555c-4.815,47.501 8.444,66.121 41.202,57.861c40.729,-10.27 76.104,-43.165 93.403,-86.855c10.288,-25.986 1.849,-48.029 -18.388,-48.029c-11.901,-0 -18.59,6.023 -22.4,20.169c-3.505,13.019 -10.333,17.254 -16.618,10.309c-3.58,-3.956 -4.181,-7.613 -2.955,-17.968c3.206,-27.065 17.536,-39.3 43.169,-36.859c8.108,0.773 17.265,2.698 20.348,4.28c18.519,9.5 31.665,33.805 29.006,53.63c-1.658,12.356 -18.2,47.408 -31.886,67.561c-21.803,32.105 -58.079,56.803 -96.587,65.757c-25.058,5.826 -43.067,1.635 -59.846,-13.93c-13.748,-12.751 -16.94,-22.772 -16.891,-53.019c0.054,-34.003 4.008,-53.076 20.269,-97.783c7.013,-19.281 12.751,-36.162 12.751,-37.513c-0,-1.35 -9.469,1.982 -21.043,7.405c-11.573,5.424 -30.671,12.641 -42.439,16.039c-24.537,7.083 -26.957,9.35 -37.826,35.425c-28.633,68.688 -59.645,123.806 -82.901,147.339c-20.907,21.157 -47.246,28.882 -73.404,21.53Zm48.645,-7.124c-6.798,3.245 -16.3,5.046 -26.077,5.334c10.91,-0.016 18.122,-1.51 26.077,-5.334Zm-85.165,-29.68c4.586,11.954 11.828,20.787 21.801,26.59c-9.375,-5.962 -17.067,-15.271 -21.801,-26.59Zm101.359,-14.055c-4.158,5.531 -8.247,10.024 -12.336,13.614c-6.365,5.589 -13.185,9.543 -20.141,11.782c1.851,-0.486 3.719,-1.077 5.6,-1.774c8.769,-3.251 17.599,-10.909 26.877,-23.622Zm-34.02,22.241c18.945,-3.789 40.023,-30.607 60.116,-76.487c14.597,-33.33 32.304,-80.059 30.878,-81.485c-0.574,-0.574 -18.433,3.007 -39.686,7.957c-72.385,16.858 -96.594,34.042 -105.879,75.157c-3.253,14.407 -3.512,20.925 -1.322,33.358c5.828,33.082 25.384,47.602 55.893,41.5l0,-0Zm-60.598,-52.466c0.38,23.774 10.608,42.138 25.891,51.187c-15.762,-9.685 -25.51,-28.578 -25.891,-51.187Zm434.012,-92.466c1.707,8.431 0.941,18.481 -3.043,28.912c-18.846,49.351 -64.921,89.032 -106.448,91.677c-14.477,0.922 -16.295,0.428 -23.609,-6.404c-6.246,-5.835 -10.311,-13.969 -12.201,-24.428c1.89,10.46 5.955,18.594 12.201,24.428c7.314,6.833 9.132,7.326 23.61,6.404c41.526,-2.644 87.601,-42.326 106.447,-91.676c3.984,-10.432 4.75,-20.481 3.043,-28.913Zm-143.196,-59.369c0.402,2.669 -3.85,17.485 -9.933,34.416c-17.636,49.088 -21.611,65.606 -23.241,96.581c-0.766,14.563 -0.706,24.661 0.702,32.62c-1.408,-7.958 -1.468,-18.056 -0.702,-32.62c1.63,-30.975 5.605,-47.493 23.241,-96.58c6.083,-16.931 10.335,-31.747 9.933,-34.417Zm-264.298,86.391c-4.472,3.826 -8.242,7.71 -10.958,11.41c-8.403,11.447 -15.573,35.69 -15.573,52.653c0,0.403 0.003,0.803 0.01,1.203l-0.01,-1.203c0,-16.963 7.17,-41.206 15.573,-52.653c2.716,-3.7 6.486,-7.584 10.958,-11.41Zm240.259,-256.862c0.188,1.238 -0.435,2.687 -1.672,4.436c-22.427,31.727 -75.239,130.637 -92.338,172.936c-9.79,24.218 -2.965,20.607 -65.942,34.9c-70.58,16.019 -97.827,34.727 -114.07,78.322c-3.011,8.081 -4.555,15.286 -5.163,25.255c0.811,-9.352 2.535,-18.202 5.163,-25.255c16.243,-43.595 43.49,-62.303 114.07,-78.322c62.977,-14.293 56.152,-10.681 65.942,-34.9c17.099,-42.299 69.911,-141.209 92.338,-172.936c1.237,-1.749 1.86,-3.197 1.672,-4.436Zm-113.635,214.204c-4.992,-1.916 -68.002,12.197 -87.696,19.641c-13.802,5.217 -28.286,13.926 -38.859,22.958c10.573,-9.032 25.057,-17.741 38.859,-22.958c19.694,-7.444 82.704,-21.557 87.696,-19.641Zm1.787,3.15c-0.058,3.593 -2.588,11.052 -8.682,27.179c6.095,-16.129 8.625,-23.588 8.682,-27.179Zm299.616,10.408c-0.889,-4.482 -2.411,-8.872 -4.556,-13.302c-12.507,-25.837 -56.299,-34.041 -71.601,-13.414c-6.768,9.125 -9.758,25.436 -7.916,34.318c-1.842,-8.882 1.148,-25.193 7.917,-34.317c15.301,-20.627 59.093,-12.423 71.6,13.413c2.145,4.43 3.667,8.82 4.556,13.302Zm2.149,-256.557c-0.719,-3.878 -1.782,-7.186 -3.194,-9.577c-10.598,-17.94 -32.457,-14.464 -53.045,8.435c-11.803,13.128 -38.719,56.734 -55.319,89.622c-11.665,23.11 -32.31,69.311 -32.31,72.305c-0,12.379 -98.871,62.563 -107.082,54.352c-0.106,-0.106 -0.188,-0.259 -0.247,-0.46c0.059,0.201 0.141,0.354 0.247,0.46c8.211,8.211 107.082,-41.972 107.082,-54.352c-0,-2.994 20.645,-49.195 32.31,-72.305c16.6,-32.887 43.516,-76.494 55.319,-89.622c20.588,-22.899 42.447,-26.374 53.045,-8.434c1.412,2.39 2.475,5.698 3.194,9.576Zm-62.297,95.474c30.557,-30.943 41.105,-47.16 44.446,-68.338c1.807,-11.453 -2.13,-23.86 -7.571,-23.86c-7.672,0 -50.019,66.086 -62.323,97.259c-1.248,3.162 -4.101,10.041 -6.34,15.287c-6.891,16.146 0.287,11.551 31.788,-20.348Zm-370.215,-23.772c3.038,15.126 11.145,27.983 21.756,33.397c11.855,6.047 34.994,6.676 45.514,1.236c10.73,-5.549 17.902,-15.981 17.902,-26.04c-0,-10.946 3.658,-10.218 5.77,-2.503c-2.112,-7.716 -5.77,-8.443 -5.77,2.503c-0,10.059 -7.172,20.491 -17.902,26.039c-10.52,5.44 -33.659,4.812 -45.514,-1.236c-10.61,-5.412 -18.716,-18.267 -21.756,-33.396Zm298.773,-79.626c-0.885,-3.153 -7.541,-1.335 -19.744,6.251c-16.115,10.018 -36.329,12.921 -70.081,10.067c-23.135,-1.957 -76.109,-11.282 -80.895,-14.24c-1.023,-0.633 -12.521,-2.739 -25.55,-4.68c-20.332,-3.03 -26.869,-3.018 -46.124,0.088c-27.292,4.403 -38.629,9.895 -52.16,25.267c-13.405,15.229 -16.604,25.433 -15.137,48.292c0.332,5.162 1.108,10.085 2.271,14.734c-1.164,-4.659 -1.94,-9.577 -2.27,-14.733c-1.468,-22.86 1.731,-33.063 15.136,-48.293c13.531,-15.372 24.868,-20.863 52.16,-25.266c19.255,-3.107 25.792,-3.119 46.124,-0.089c13.029,1.942 24.527,4.048 25.55,4.68c4.787,2.958 57.76,12.283 80.895,14.24c33.752,2.855 53.966,-0.05 70.081,-10.066c12.203,-7.587 18.859,-9.405 19.744,-6.252Zm133.858,8.593l0.02,0.113c-0,0 -0.02,-0.113 -0.02,-0.113Zm-28.996,-0.224l-0.198,0.113l0.198,-0.113Z" style="fill:#ad1d16;fill-rule:nonzero;"/></g></svg>