<?xml version="1.0" encoding="UTF-8" standalone="no"?>
<!DOCTYPE svg PUBLIC "-//W3C//DTD SVG 1.1//EN" "http://www.w3.org/Graphics/SVG/1.1/DTD/svg11.dtd">
<svg width="100%" height="100%" viewBox="0 0 91 91" version="1.1" xmlns="http://www.w3.org/2000/svg" xmlns:xlink="http://www.w3.org/1999/xlink" xml:space="preserve" xmlns:serif="http://www.serif.com/" style="fill-rule:evenodd;clip-rule:evenodd;stroke-linejoin:round;stroke-miterlimit:2;">
    <g>
        <g transform="matrix(0.887926,-0.438669,0.501438,1.01498,8.79215,6.45603)">
            <path d="M47.317,36.078C46.13,36.95 44.966,37.7 43.833,38.235L43.833,38.235C42.661,38.788 41.548,39.343 40.469,39.896C40.121,40.074 39.684,40.042 39.375,39.816C38.57,39.229 37.81,38.366 37.673,37.207C37.568,36.324 37.855,35.442 38.481,34.655C39.813,34.761 43.429,35.042 45.315,35.511L47.317,36.078Z" style="fill:rgb(98,177,78);"/>
        </g>
        <g transform="matrix(0.887926,-0.438669,0.501438,1.01498,8.79215,6.45603)">
            <path d="M43.325,31.936L44.736,31.698C46.771,31.513 48.661,31.808 50.093,32.453C50.372,32.578 50.563,32.816 50.603,33.088C50.639,33.331 50.552,33.574 50.352,33.743C49.457,33.357 48.205,32.911 46.582,32.489C45.39,32.18 44.277,32.007 43.325,31.936Z" style="fill:rgb(98,177,78);"/>
        </g>
        <g transform="matrix(0.987958,-0.15472,0.15472,0.987958,16.1249,-4.74901)">
            <path d="M49.998,31.581L47.949,34.906L45.865,34.886C43.924,34.938 40.411,35.705 39.116,35.984L39.366,35.263C39.973,33.898 41.167,32.563 42.775,31.612C43.698,31.408 44.809,31.265 46.04,31.247C47.716,31.221 49.051,31.333 50.027,31.485L49.998,31.581Z" style="fill:white;"/>
        </g>
        <path d="M87.129,2.575C87.305,3.041 87.309,3.404 87.206,3.679C87.069,4.045 86.685,4.283 86.685,4.283L86.688,4.282L86.671,4.29C86.447,4.405 83.492,5.848 85.299,12.022C85.768,13.627 86.343,15.236 86.896,16.793C86.896,16.794 86.896,16.794 86.896,16.795C88.914,22.45 91.128,28.291 87.382,33.797C87.382,33.797 87.382,33.797 87.382,33.797C85.007,37.29 82.995,40.4 81.91,43.122C81.124,45.093 80.818,46.884 81.121,48.485C82.166,54.006 78.492,60.311 71.016,66.368C68.872,68.106 68.663,69.473 68.38,71.771C68.048,74.431 67.63,77.742 62.7,81.569C59.803,83.812 55.839,84.832 52.018,85.847C49.933,86.4 47.806,86.969 46.19,87.656C44.954,88.18 44,88.799 43.473,89.486C43.473,89.486 43.473,89.487 43.472,89.487C43.212,89.829 42.808,90.02 42.391,90.02C42.258,90.02 42.125,90 41.995,89.961C41.452,89.796 41.067,89.314 41.027,88.748C41.027,88.747 41.027,88.746 41.027,88.745C40.995,88.302 40.31,77.797 44.486,69.19C46.168,65.724 48.086,62.754 49.938,59.882C51.643,57.244 53.272,54.696 54.514,52.073C54.702,51.677 54.593,51.205 54.252,50.931C53.91,50.656 53.425,50.653 53.08,50.922C49.605,53.623 46.334,54.654 43.629,55.514C43.628,55.514 43.628,55.514 43.628,55.514C40.986,56.356 38.921,57.064 37.401,58.702C37.401,58.702 37.401,58.702 37.401,58.702C33.518,62.89 27.038,65.279 20.868,65.279C18.28,65.279 15.744,64.858 13.476,63.957C13.476,63.957 13.475,63.957 13.475,63.957C9.444,62.361 2.951,61.837 2.887,61.831C2.88,61.83 2.873,61.83 2.866,61.829C2.475,61.8 2.115,61.603 1.879,61.288C1.879,61.288 1.879,61.287 1.878,61.287C1.642,60.972 1.553,60.569 1.633,60.183C2.156,57.711 4.595,52.459 7.838,47.928C9.966,44.953 12.437,42.28 14.972,40.97C16.736,40.061 18.608,39.312 20.42,38.585C22.914,37.59 25.319,36.619 27.18,35.387C28.529,34.494 29.601,33.459 30.271,32.211C34.188,24.92 38.03,20.79 48.168,18.475C48.168,18.475 48.168,18.475 48.168,18.475C56.956,16.465 61.452,12.447 67.782,6.024C67.782,6.024 67.782,6.024 67.782,6.023C73.765,-0.052 82.488,1.171 85.349,1.546C85.39,1.552 85.431,1.555 85.472,1.555L85.416,1.553C85.416,1.553 85.81,1.591 86.185,1.735C86.535,1.871 86.949,2.102 87.129,2.575ZM85.123,32.262C85.123,32.262 85.123,32.262 85.123,32.262C86.5,30.235 86.868,28.136 86.575,25.691C86.303,23.43 85.442,20.852 84.325,17.716C84.325,17.715 84.325,17.715 84.324,17.715C83.758,16.13 83.173,14.488 82.675,12.792C82.129,10.929 81.943,9.348 82.001,8.012C82.017,7.639 81.812,7.291 81.478,7.125C81.144,6.958 80.743,7.004 80.455,7.241C80.176,7.471 79.907,7.71 79.647,7.959C77.08,10.415 75.422,13.747 73.973,17.206C73.633,18.019 73.304,18.839 72.978,19.656C72.978,19.656 72.978,19.657 72.978,19.657C71.806,22.595 70.708,25.377 69.118,27.614C69.118,27.615 69.118,27.615 69.118,27.615C63.744,35.195 60.568,41.598 58.801,48.364C58.801,48.364 58.801,48.364 58.801,48.364C57.551,53.154 54.961,57.138 52.237,61.365C52.237,61.365 52.237,61.365 52.237,61.365C50.42,64.185 48.54,67.099 46.945,70.385C46.945,70.385 46.945,70.385 46.945,70.385C44.677,75.061 43.967,80.531 43.774,84.24C43.757,84.566 43.909,84.878 44.177,85.065C44.445,85.252 44.791,85.287 45.091,85.158C46.936,84.366 49.094,83.798 51.318,83.208C54.949,82.244 58.692,81.215 61.022,79.407C65.072,76.27 65.344,74.026 65.663,71.435C65.925,69.345 66.226,66.734 69.295,64.243C73.235,61.051 75.992,57.815 77.411,54.86C78.426,52.747 78.769,50.757 78.436,48.994C78.436,48.994 78.436,48.994 78.436,48.994C77.964,46.498 78.536,43.975 79.724,41.303C80.977,38.483 82.912,35.512 85.123,32.262ZM61.34,15.791C61.13,15.775 60.913,15.829 60.727,15.959C57.418,18.275 53.72,20.01 48.773,21.14C39.498,23.259 36.431,26.517 32.679,33.503C32.679,33.503 32.679,33.503 32.679,33.503C30.487,37.589 25.864,39.352 21.439,41.123C19.672,41.83 17.844,42.562 16.228,43.396C16.228,43.396 16.227,43.396 16.227,43.396C11.94,45.611 7.162,53.386 5.192,58.121C5.079,58.392 5.099,58.7 5.245,58.955C5.391,59.21 5.648,59.382 5.939,59.421C8.337,59.745 11.801,60.353 14.484,61.417C14.485,61.417 14.485,61.417 14.485,61.417C21.096,64.038 30.668,61.938 35.396,56.843C35.913,56.288 36.456,55.82 37.02,55.421C37.234,55.269 37.376,55.035 37.411,54.775C37.446,54.515 37.371,54.252 37.205,54.049C36.957,53.748 36.827,53.349 36.902,52.936C36.902,52.936 36.902,52.936 36.902,52.936C37.037,52.194 37.743,51.698 38.488,51.832L38.403,51.812C38.453,51.826 43.386,52.684 47.654,51.082C47.682,51.072 47.709,51.06 47.735,51.047C51.25,49.339 55.026,46.372 58.936,39.681C58.954,39.65 58.971,39.618 58.985,39.586C59.914,37.481 61.014,35.356 62.277,33.179C62.413,32.945 62.442,32.662 62.356,32.405C62.269,32.147 62.076,31.939 61.826,31.834C60.474,31.264 59.348,30.357 58.588,29.15C58.588,29.15 58.588,29.15 58.588,29.15C56.34,25.585 57.889,20.597 61.854,17.477C62.024,17.343 62.136,17.161 62.186,16.966C62.387,16.981 62.594,16.933 62.776,16.814L62.952,16.693C65.651,14.988 68.613,14.348 71.201,14.86C71.631,14.945 72.064,14.722 72.245,14.322C73.617,11.294 75.336,8.259 77.891,5.855C78.196,5.568 78.276,5.114 78.087,4.741C77.899,4.367 77.487,4.161 77.075,4.235C74.527,4.694 71.88,5.757 69.729,7.941L69.73,7.94C66.933,10.777 64.419,13.225 61.691,15.266C61.51,15.401 61.392,15.588 61.34,15.791ZM66.885,26.035C68.221,24.153 69.291,21.513 70.407,18.716C70.522,18.428 70.488,18.101 70.316,17.842C70.144,17.583 69.855,17.426 69.544,17.421C67.949,17.395 66.123,17.924 64.409,19.004C64.409,19.004 64.409,19.004 64.409,19.004C62.356,20.298 60.959,22.196 60.472,23.999C60.109,25.345 60.241,26.648 60.9,27.694C61.603,28.811 62.711,29.353 63.72,29.596C64.107,29.69 64.511,29.53 64.731,29.197C65.412,28.163 66.122,27.111 66.885,26.035L66.885,26.035Z" style="fill:white;fill-rule:nonzero;"/>
        <path d="M72.693,46.628C73.403,46.473 74.106,46.907 74.269,47.614C75.744,54.079 71.666,58.641 66.866,59.808C66.76,59.832 66.654,59.845 66.55,59.845C65.958,59.845 65.421,59.441 65.276,58.839C65.106,58.135 65.54,57.425 66.244,57.254C67.831,56.871 69.944,55.759 71.101,53.687C71.869,52.312 72.237,50.509 71.709,48.199C71.548,47.494 71.989,46.79 72.693,46.628L72.693,46.628Z" style="fill:white;fill-rule:nonzero;"/>
        <path d="M79.884,21.085C80.509,20.719 81.312,20.926 81.68,21.552C81.68,21.552 81.68,21.553 81.68,21.553C83.159,24.069 83.591,26.734 82.893,29.266C82.893,29.267 82.893,29.267 82.892,29.268C82.2,31.8 80.372,34.082 78.02,35.379C77.819,35.489 77.603,35.542 77.388,35.542C76.925,35.542 76.477,35.296 76.236,34.863C75.889,34.225 76.119,33.428 76.753,33.077C78.108,32.332 79.762,30.754 80.361,28.572C80.864,26.753 80.565,24.835 79.417,22.882C79.417,22.882 79.417,22.882 79.417,22.882C79.05,22.258 79.259,21.453 79.884,21.085L79.884,21.085Z" style="fill:white;fill-rule:nonzero;"/>
        <path d="M60.786,67.824C61.51,67.86 62.072,68.473 62.039,69.197C61.746,75.465 57,78.656 52.319,78.656L51.9,78.646C51.176,78.617 50.613,78.007 50.642,77.282C50.672,76.564 51.294,75.983 51.988,76.023C52.001,76.024 52.013,76.025 52.025,76.025C54.39,76.075 59.148,74.803 59.414,69.073C59.448,68.351 60.057,67.793 60.786,67.824Z" style="fill:white;fill-rule:nonzero;"/>
        <g transform="matrix(0.834866,-0.362879,0.41834,0.962463,-6.76452,17.3215)">
            <path d="M44.735,42.146C47.107,42.193 49.527,41.529 51.141,40.248C52.357,39.283 53.148,37.982 53.251,36.366C53.251,36.365 53.251,36.365 53.251,36.364C53.345,34.854 52.809,33.522 51.623,32.422C50.223,31.123 48.025,30.204 45.512,30.154C43.297,30.111 41.082,30.863 39.492,31.991C39.491,31.992 39.49,31.992 39.49,31.993C38.581,32.64 37.09,34.048 36.966,36.047C36.856,37.792 37.813,39.128 38.671,39.923C40.127,41.274 42.332,42.1 44.735,42.146L44.735,42.146Z" style="fill:rgb(98,177,78);"/>
        </g>
        <g transform="matrix(0.890416,-0.189318,0.218252,1.0265,-24.4258,22.6755)">
            <path d="M44.735,42.146C47.107,42.193 49.527,41.529 51.141,40.248C52.357,39.283 53.148,37.982 53.251,36.366C53.251,36.365 53.251,36.365 53.251,36.364C53.345,34.854 52.809,33.522 51.623,32.422C50.223,31.123 48.025,30.204 45.512,30.154C43.297,30.111 41.082,30.863 39.492,31.991C39.491,31.992 39.49,31.992 39.49,31.993C38.581,32.64 37.09,34.048 36.966,36.047C36.856,37.792 37.813,39.128 38.671,39.923C40.127,41.274 42.332,42.1 44.735,42.146L44.735,42.146Z" style="fill:rgb(98,177,78);"/>
        </g>
        <g transform="matrix(0.917113,-0.398628,0.398628,0.917113,-10.4549,21.3202)">
            <path d="M39.869,32.417C39.869,32.417 42.437,31.302 46.04,31.247C49.972,31.187 52.022,31.88 52.022,31.88C52.935,32.861 53.385,33.923 53.463,35.05C53.463,35.05 49.267,34.796 45.865,34.886C43.466,34.95 38.668,36.106 38.621,36.087C38.21,35.916 39.35,32.225 39.869,32.417Z" style="fill:rgb(255,147,0);"/>
        </g>
        <g transform="matrix(0.0913932,-0.0145835,0.0130455,0.081755,65.9413,19.2318)">
            <g id="Stroke-82" transform="matrix(1,0,0,1,1,1)">
                <path d="M10.7,31C8.1,31 6.3,28.7 5,26.7C1.7,21.6 1,15.2 3.4,11.5C5,9 7.6,7.5 10.1,7.5C11.4,7.5 12.5,7.9 13.4,8.2C14.1,8.5 14.8,8.7 15.5,8.7C16.1,8.7 16.6,8.5 17.3,8.2C18.2,7.9 19.3,7.5 20.8,7.5C23,7.5 25.3,8.7 26.9,10.7C27.1,10.9 27.2,11.2 27.1,11.5C27,11.8 26.9,12 26.6,12.2C24.8,13.2 23.8,15 24,17C24.1,19.1 25.4,20.8 27.3,21.5C27.6,21.6 27.8,21.8 27.9,22.1C28,22.4 28,22.6 27.9,22.9C27.2,24.4 26.9,25.1 26,26.4C24.5,28.6 22.7,30.9 20.3,30.9C19.2,30.9 18.5,30.6 17.9,30.3C17.3,30 16.7,29.7 15.5,29.7C14.4,29.7 13.8,30 13.1,30.3C12.5,30.7 11.8,31 10.7,31Z" style="fill:rgb(66,66,66);fill-rule:nonzero;"/>
            </g>
            <g id="Stroke-83" transform="matrix(1,0,0,1,1,1)">
                <path d="M14.7,7.7L14.5,7.7C14,7.7 13.6,7.3 13.5,6.9C13.2,5.2 13.8,3.2 15.1,1.6C16.3,0.1 18.3,-0.9 20.1,-1.1C20.6,-1.1 21.1,-0.8 21.2,-0.2C21.5,1.6 20.9,3.5 19.6,5.1C18.5,6.7 16.5,7.7 14.7,7.7Z" style="fill:rgb(66,66,66);fill-rule:nonzero;"/>
            </g>
        </g>
        <g transform="matrix(0.978136,-0.207968,0.207968,0.978136,-28.8387,25.859)">
            <path d="M39.869,32.417C39.869,32.417 42.437,31.302 46.04,31.247C49.972,31.187 52.022,31.88 52.022,31.88C52.935,32.861 53.385,33.923 53.463,35.05C53.463,35.05 49.267,34.796 45.865,34.886C43.466,34.95 38.668,36.106 38.621,36.087C38.21,35.916 39.35,32.225 39.869,32.417Z" style="fill:rgb(0,122,255);"/>
        </g>
        <g transform="matrix(0.917113,-0.398628,0.398628,0.917113,-10.4549,21.3202)">
            <path d="M53.401,30.052C54.873,31.626 55.625,33.74 55.501,36.011C55.501,36.011 55.501,36.011 55.501,36.012C55.231,41 50.911,44.529 45.572,44.41C45.572,44.41 45.572,44.41 45.572,44.41C42.939,44.351 40.448,43.291 38.751,41.477C37.243,39.865 36.46,37.779 36.577,35.588C36.706,33.238 37.89,31.013 39.79,29.457C39.79,29.457 39.79,29.457 39.79,29.457C41.653,27.931 44.041,27.135 46.504,27.191C46.505,27.191 46.505,27.191 46.505,27.191C49.263,27.251 51.718,28.253 53.401,30.052ZM45.702,42.034C47.861,42.083 50.064,41.387 51.533,40.042C52.64,39.03 53.36,37.664 53.454,35.968C53.454,35.968 53.454,35.967 53.454,35.966C53.539,34.381 53.051,32.983 51.972,31.829C50.698,30.466 48.697,29.501 46.409,29.449C44.393,29.404 42.377,30.193 40.929,31.377C40.928,31.377 40.927,31.378 40.927,31.378C40.1,32.058 38.743,33.535 38.629,35.633C38.529,37.464 39.401,38.867 40.181,39.701C41.507,41.119 43.514,41.986 45.702,42.034L45.702,42.034Z" style="fill:white;"/>
        </g>
        <g transform="matrix(0.978136,-0.207968,0.207968,0.978136,-28.8387,25.859)">
            <path d="M53.401,30.052C54.873,31.626 55.625,33.74 55.501,36.011C55.501,36.011 55.501,36.011 55.501,36.012C55.231,41 50.911,44.529 45.572,44.41C45.572,44.41 45.572,44.41 45.572,44.41C42.939,44.351 40.448,43.291 38.751,41.477C37.243,39.865 36.46,37.779 36.577,35.588C36.706,33.238 37.89,31.013 39.79,29.457C39.79,29.457 39.79,29.457 39.79,29.457C41.653,27.931 44.041,27.135 46.504,27.191C46.505,27.191 46.505,27.191 46.505,27.191C49.263,27.251 51.718,28.253 53.401,30.052ZM45.702,42.034C47.861,42.083 50.064,41.387 51.533,40.042C52.64,39.03 53.36,37.664 53.454,35.968C53.454,35.968 53.454,35.967 53.454,35.966C53.539,34.381 53.051,32.983 51.972,31.829C50.698,30.466 48.697,29.501 46.409,29.449C44.393,29.404 42.377,30.193 40.929,31.377C40.928,31.377 40.927,31.378 40.927,31.378C40.1,32.058 38.743,33.535 38.629,35.633C38.529,37.464 39.401,38.867 40.181,39.701C41.507,41.119 43.514,41.986 45.702,42.034L45.702,42.034Z" style="fill:white;"/>
        </g>
        <g transform="matrix(0.942894,-0.333093,0.637454,1.80445,-33.5944,-36.373)">
            <path d="M26.082,55.121C25.905,55.339 25.49,55.493 25.007,55.493C24.363,55.493 23.841,55.22 23.841,54.884L25.044,54.986L26.174,54.884L26.082,55.121Z" style="fill:rgb(66,66,66);"/>
        </g>
        <g transform="matrix(0.869661,-0.49365,0.944716,1.6643,-25.5836,-40.4483)">
            <path d="M26.082,55.121C25.905,55.339 25.49,55.493 25.007,55.493C24.363,55.493 23.841,55.22 23.841,54.884L25.044,54.986L26.174,54.884L26.082,55.121Z" style="fill:rgb(66,66,66);"/>
        </g>
        <g transform="matrix(0.147347,-0.0651464,0.0748684,0.169336,43.4941,32.4506)">
            <path d="M4.539,2.407C4.821,1.008 6.061,0 7.5,0C8.939,0 10.179,1.008 10.461,2.407L10.798,4.079C10.974,4.954 11.322,5.786 11.82,6.528L12.401,7.391C12.763,7.93 13,8.539 13.098,9.173C13.675,9.222 14.18,9.589 14.398,10.128L14.89,11.347C15.138,11.962 14.958,12.665 14.445,13.089L12.561,14.646C12.013,15.099 11.222,15.119 10.651,14.694L9.892,14.13C9.882,14.123 9.872,14.115 9.862,14.107C9.49,14.208 9.098,14.261 8.694,14.261L6.306,14.261C5.902,14.261 5.51,14.208 5.138,14.107C5.128,14.115 5.118,14.123 5.108,14.13L4.349,14.694C3.778,15.119 2.987,15.099 2.439,14.646L0.554,13.089C0.042,12.665 -0.138,11.962 0.11,11.347L0.602,10.128C0.82,9.589 1.325,9.222 1.902,9.173C2,8.539 2.237,7.93 2.599,7.391L3.179,6.528C3.678,5.786 4.026,4.954 4.202,4.079L4.539,2.407ZM10.845,9.476C10.634,9.633 10.464,9.844 10.356,10.094L9.588,11.871C9.2,12.098 8.752,12.224 8.285,12.224L6.715,12.224C6.248,12.224 5.8,12.098 5.412,11.871L4.644,10.094C4.536,9.844 4.366,9.633 4.155,9.476C4.181,9.154 4.269,8.835 4.419,8.538L5.677,6.043L5.684,6.05C6.687,7.045 8.313,7.045 9.316,6.05L9.323,6.043L10.581,8.538C10.731,8.835 10.819,9.154 10.845,9.476ZM9.041,4.269L9.041,3.056L8.014,3.056L8.014,3.857C8.232,3.901 8.445,3.974 8.648,4.075L9.041,4.269ZM6.986,3.857L6.986,3.056L5.959,3.056L5.959,4.269L6.352,4.075C6.555,3.974 6.769,3.901 6.986,3.857ZM2.033,10.186C1.823,10.186 1.634,10.313 1.556,10.507L1.064,11.726C0.981,11.931 1.041,12.165 1.212,12.306L3.096,13.863C3.279,14.014 3.543,14.021 3.733,13.88L4.492,13.315C4.681,13.174 4.749,12.923 4.656,12.707L3.7,10.495C3.619,10.308 3.433,10.186 3.228,10.186L2.033,10.186ZM13.444,10.507C13.366,10.313 13.178,10.186 12.967,10.186L11.772,10.186C11.567,10.186 11.381,10.308 11.3,10.495L10.344,12.707C10.251,12.923 10.319,13.174 10.508,13.315L11.267,13.88C11.457,14.021 11.721,14.014 11.904,13.863L13.788,12.306C13.959,12.165 14.019,11.931 13.936,11.726L13.444,10.507ZM6.811,4.986C7.245,4.771 7.755,4.771 8.189,4.986L8.687,5.233L8.59,5.33C7.988,5.926 7.012,5.926 6.411,5.33L6.313,5.233L6.811,4.986Z" style="fill:rgb(66,66,66);"/>
        </g>
        <g transform="matrix(0.00952272,-0.00202469,0.00202469,0.00952272,21.6009,47.7275)">
            <path d="M0.5,36.357L105.12,22.11L105.165,123.024L0.595,123.619L0.5,36.358L0.5,36.357ZM105.07,134.65L105.15,235.652L0.581,221.275L0.575,133.973L105.069,134.65L105.07,134.65ZM117.752,20.245L256.468,0L256.468,121.74L117.752,122.84L117.752,20.245ZM256.5,135.6L256.467,256.791L117.751,237.213L117.557,135.373L256.5,135.6Z" style="fill:white;fill-rule:nonzero;"/>
        </g>
        <g transform="matrix(1.7,0,0,1.30054,-29.8826,-9.83846)">
            <ellipse cx="43.07" cy="36.562" rx="0.325" ry="0.475" style="fill:rgb(66,66,66);"/>
        </g>
        <g transform="matrix(1.7,0,0,1.30054,-52.526,5.41949)">
            <ellipse cx="43.07" cy="36.562" rx="0.325" ry="0.475" style="fill:rgb(66,66,66);"/>
        </g>
        <g transform="matrix(1.7,0,0,1.30054,-45.9521,3.79631)">
            <ellipse cx="43.07" cy="36.562" rx="0.325" ry="0.475" style="fill:rgb(66,66,66);"/>
        </g>
        <g transform="matrix(1.7,0,0,1.30054,-23.195,-13.1024)">
            <ellipse cx="43.07" cy="36.562" rx="0.325" ry="0.475" style="fill:rgb(66,66,66);"/>
        </g>
        <g transform="matrix(1.7,0,0,1.30054,-10.0472,-21.7865)">
            <ellipse cx="43.07" cy="36.562" rx="0.325" ry="0.475" style="fill:rgb(66,66,66);"/>
        </g>
    </g>
</svg>
