<?xml version="1.0" encoding="UTF-8" standalone="no"?>
<!DOCTYPE svg PUBLIC "-//W3C//DTD SVG 1.1//EN" "http://www.w3.org/Graphics/SVG/1.1/DTD/svg11.dtd">
<svg width="100%" height="100%" viewBox="0 0 1000 1000" version="1.1" xmlns="http://www.w3.org/2000/svg" xmlns:xlink="http://www.w3.org/1999/xlink" xml:space="preserve" xmlns:serif="http://www.serif.com/" style="fill-rule:evenodd;clip-rule:evenodd;stroke-linecap:round;stroke-linejoin:round;stroke-miterlimit:1.5;">
    <a xlink:href="agence-neko.com">
        <path d="M42.509,898.683c-23.472,0 -42.509,21.104 -42.509,47.134c0,20.825 12.179,38.492 29.073,44.725c2.122,0.436 2.809,-1.025 2.809,-2.266l-0,-8.775c-11.825,2.852 -14.287,-5.561 -14.287,-5.561c-1.934,-5.448 -4.722,-6.898 -4.722,-6.898c-3.857,-2.926 0.294,-2.863 0.294,-2.863c4.269,0.33 6.515,4.859 6.515,4.859c3.79,7.203 9.943,5.122 12.37,3.916c0.379,-3.044 1.481,-5.126 2.699,-6.3c-9.44,-1.198 -19.366,-5.24 -19.366,-23.296c-0,-5.149 1.661,-9.352 4.378,-12.651c-0.439,-1.191 -1.895,-5.986 0.415,-12.475c-0,-0 3.571,-1.265 11.693,4.831c3.39,-1.045 7.025,-1.567 10.638,-1.587c3.614,0.02 7.252,0.542 10.649,1.587c8.116,-6.096 11.679,-4.831 11.679,-4.831c2.314,6.493 0.858,11.288 0.418,12.475c2.728,3.299 4.375,7.506 4.375,12.651c0,18.103 -9.943,22.09 -19.409,23.256c1.523,1.461 2.916,4.329 2.916,8.728l-0,12.934c-0,1.253 0.68,2.726 2.837,2.262c16.88,-6.241 29.045,-23.904 29.045,-44.721c-0,-26.03 -19.034,-47.134 -42.51,-47.134Z" style="fill:#fff;fill-rule:nonzero;" />
        <path d="M233.26,676.296l-0,269.521l-148.241,-0" style="fill:none;stroke:#000;stroke-width:7.55px;" />
        <g>
            <path d="M772.9,246.037c-6.336,14.45 -13.087,27.511 -20.671,38.194l0.001,-0.001c-7.844,11.053 -15.138,21.862 -22.136,32.487c-2.252,3.419 -6.406,5.059 -10.386,4.102c-10.37,-2.495 -21.747,-8.072 -28.972,-19.545c-5.507,-8.736 -7.432,-19.222 -5.778,-30.253c12.697,-4.89 47.137,-18.262 66.763,-21.872l21.179,-3.112Z" style="fill:#62b14e;" />
            <path d="M715.144,220.831l11.643,-8.843c17.61,-11.1 36.375,-16.532 52.764,-16.27c3.194,0.051 6.159,1.67 7.93,4.328c1.579,2.371 2.029,5.3 1.08,7.957c-10.156,0.009 -23.877,1 -40.855,3.924c-12.468,2.147 -23.512,5.359 -32.562,8.904Z" style="fill:#62b14e;" />
            <path d="M788.419,209.032l-15.519,37.005l-21.179,3.112c-19.626,3.61 -54.066,16.982 -66.763,21.872l1.384,-7.713c4,-14.826 13.992,-30.276 28.802,-42.477c9.05,-3.545 20.094,-6.757 32.562,-8.904c16.978,-2.924 30.699,-3.915 40.855,-3.924l-0.142,1.029Z" style="fill:#fff;" />
            <path d="M960.226,43.19c1.812,4.784 1.854,8.511 0.794,11.342c-1.406,3.754 -5.353,6.199 -5.353,6.199l0.025,-0.006l-0.167,0.08c-2.305,1.182 -32.667,16.008 -14.095,79.45c4.818,16.491 10.722,33.015 16.402,49.018c0.002,0.005 0.004,0.01 0.006,0.015c20.729,58.108 43.475,118.121 4.991,174.692c-0,0.001 -0,0.001 -0,0.001c-24.408,35.883 -45.08,67.841 -56.228,95.803c-8.076,20.26 -11.218,38.656 -8.104,55.106c10.74,56.732 -27.009,121.505 -103.826,183.745c-22.029,17.849 -24.175,31.901 -27.086,55.513c-3.407,27.323 -7.704,61.343 -58.357,100.663c-29.764,23.045 -70.492,33.532 -109.748,43.96c-21.424,5.685 -43.276,11.525 -59.887,18.581c-12.694,5.392 -22.499,11.745 -27.908,18.807c-0.003,0.004 -0.007,0.008 -0.01,0.013c-2.678,3.508 -6.826,5.478 -11.111,5.478c-1.366,-0 -2.73,-0.215 -4.066,-0.609c-5.584,-1.694 -9.539,-6.645 -9.946,-12.464c-0.001,-0.009 -0.001,-0.018 -0.002,-0.027c-0.331,-4.552 -7.37,-112.487 35.536,-200.926c17.283,-35.614 36.993,-66.123 56.015,-95.637c17.52,-27.103 34.256,-53.284 47.026,-80.231c1.927,-4.066 0.81,-8.922 -2.699,-11.738c-3.509,-2.816 -8.492,-2.854 -12.044,-0.092c-35.696,27.758 -69.306,38.35 -97.104,47.184c-0.002,0.001 -0.004,0.001 -0.006,0.002c-27.144,8.647 -48.364,15.922 -63.981,32.753c-0.001,0.001 -0.002,0.002 -0.003,0.003c-39.896,43.03 -106.473,67.579 -169.865,67.579c-26.587,0 -52.651,-4.334 -75.951,-13.586c-0.002,-0.001 -0.005,-0.002 -0.008,-0.003c-41.418,-16.401 -108.128,-21.782 -108.792,-21.845c-0.069,-0.007 -0.138,-0.013 -0.207,-0.018c-4.026,-0.296 -7.725,-2.325 -10.141,-5.558c-0.004,-0.005 -0.007,-0.009 -0.011,-0.014c-2.426,-3.235 -3.34,-7.37 -2.517,-11.341c5.374,-25.399 30.428,-79.356 63.745,-125.914c21.87,-30.563 47.258,-58.033 73.3,-71.488c18.126,-9.34 37.36,-17.039 55.982,-24.508c25.621,-10.226 50.336,-20.203 69.454,-32.858c13.862,-9.176 24.878,-19.803 31.76,-32.631c40.244,-74.907 79.719,-117.34 183.877,-141.133c0,-0 0.001,-0 0.002,-0.001c90.294,-20.649 136.494,-61.933 201.522,-127.929c0.001,-0.001 0.002,-0.002 0.002,-0.002c61.471,-62.423 151.105,-49.858 180.495,-45.999c0.42,0.055 0.842,0.083 1.265,0.083l-0.578,-0.017c0,-0 4.049,0.387 7.906,1.876c3.594,1.387 7.851,3.768 9.696,8.629Zm-20.611,305.015c0,-0.001 0.001,-0.002 0.001,-0.002c14.15,-20.818 17.932,-42.393 14.914,-67.508c-2.791,-23.228 -11.631,-49.725 -23.116,-81.946c-0.001,-0.002 -0.001,-0.004 -0.002,-0.005c-5.816,-16.289 -11.83,-33.156 -16.944,-50.583c-5.611,-19.14 -7.521,-35.385 -6.932,-49.117c0.164,-3.831 -1.94,-7.4 -5.372,-9.111c-3.432,-1.71 -7.549,-1.242 -10.509,1.195c-2.868,2.361 -5.633,4.823 -8.302,7.376c-26.378,25.237 -43.414,59.473 -58.294,95.009c-3.497,8.354 -6.876,16.78 -10.229,25.177c0,0.001 -0,0.002 -0.001,0.003c-12.044,30.191 -23.322,58.775 -39.655,81.762c-0.002,0.002 -0.004,0.005 -0.006,0.008c-55.213,77.882 -87.843,143.667 -105.997,213.186c-0,0.001 -0,0.001 -0,0.001c-12.848,49.214 -39.451,90.15 -67.441,133.575c-0,0.001 -0.001,0.001 -0.001,0.001c-18.667,28.972 -37.99,58.92 -54.371,92.681c-0.001,-0 -0.001,0 -0.001,0.001c-23.301,48.038 -30.602,104.241 -32.586,142.349c-0.175,3.352 1.394,6.556 4.148,8.475c2.753,1.919 6.303,2.281 9.387,0.957c18.957,-8.14 41.125,-13.968 63.975,-20.035c37.31,-9.901 75.765,-20.475 99.712,-39.05c41.604,-32.238 44.405,-55.285 47.684,-81.913c2.692,-21.474 5.778,-48.299 37.312,-73.891c40.486,-32.802 68.814,-66.046 83.395,-96.406c10.427,-21.712 13.949,-42.16 10.528,-60.268c-0,-0 -0.001,-0 -0.001,-0.001c-4.849,-25.653 1.03,-51.567 13.233,-79.024c12.879,-28.973 32.759,-59.5 55.471,-92.896Zm-244.355,-169.227c-2.163,-0.166 -4.392,0.389 -6.303,1.726c-33.998,23.792 -71.996,41.616 -122.817,53.232c-95.303,21.769 -126.816,55.246 -165.363,127.018c-0,0.002 -0.001,0.003 -0.002,0.005c-22.517,41.983 -70.021,60.093 -115.487,78.293c-18.155,7.266 -36.93,14.787 -53.539,23.347c-0.003,0.002 -0.005,0.003 -0.008,0.004c-44.049,22.754 -93.139,102.643 -113.38,151.292c-1.159,2.786 -0.958,5.952 0.544,8.569c1.503,2.617 4.136,4.387 7.127,4.791c24.641,3.324 60.23,9.573 87.805,20.507c0,-0 0.001,0 0.001,0c67.934,26.927 166.28,5.357 214.857,-46.994c5.307,-5.703 10.887,-10.512 16.685,-14.613c2.202,-1.558 3.658,-3.961 4.018,-6.635c0.36,-2.674 -0.408,-5.377 -2.121,-7.462c-2.542,-3.096 -3.88,-7.186 -3.107,-11.432c-0,-0.001 0,-0.001 0,-0.002c1.385,-7.625 8.633,-12.72 16.294,-11.346l-0.876,-0.2c0.516,0.143 51.204,8.958 95.054,-7.501c0.283,-0.106 0.561,-0.226 0.834,-0.358c36.113,-17.557 74.906,-48.036 115.084,-116.784c0.185,-0.317 0.353,-0.644 0.501,-0.98c9.541,-21.624 20.847,-43.458 33.822,-65.821c1.4,-2.414 1.695,-5.314 0.808,-7.961c-0.886,-2.647 -2.869,-4.784 -5.441,-5.868c-13.886,-5.847 -25.457,-15.17 -33.269,-27.572c-0,-0.001 -0.001,-0.002 -0.002,-0.003c-23.091,-36.624 -7.182,-87.877 33.556,-119.931c1.752,-1.379 2.904,-3.243 3.409,-5.255c2.068,0.16 4.201,-0.34 6.065,-1.563l1.811,-1.235c27.735,-17.525 58.163,-24.097 84.75,-18.841c4.426,0.875 8.872,-1.412 10.734,-5.522c14.092,-31.11 31.756,-62.296 58.007,-87c3.132,-2.948 3.953,-7.604 2.018,-11.446c-1.935,-3.841 -6.165,-5.953 -10.398,-5.19c-26.182,4.715 -53.382,15.63 -75.478,38.068l0.003,-0.003c-28.732,29.148 -54.563,54.303 -82.596,75.267c-1.854,1.386 -3.074,3.311 -3.6,5.399Zm56.969,105.253c13.726,-19.336 24.726,-46.46 36.19,-75.199c1.183,-2.968 0.832,-6.327 -0.938,-8.986c-1.771,-2.658 -4.736,-4.277 -7.93,-4.328c-16.389,-0.262 -35.154,5.17 -52.764,16.27c-0,0 -0,0.001 -0,0.001c-21.096,13.299 -35.448,32.795 -40.445,51.319c-3.733,13.834 -2.378,27.223 4.394,37.966c7.225,11.473 18.602,17.05 28.972,19.545c3.98,0.957 8.134,-0.683 10.386,-4.102c6.998,-10.625 14.292,-21.434 22.136,-32.487l-0.001,0.001Z" style="fill:#fff;fill-rule:nonzero;" />
            <path d="M811.907,495.808c7.287,-1.592 14.519,2.87 16.192,10.138c15.15,66.416 -26.748,113.292 -76.068,125.28c-1.084,0.247 -2.172,0.384 -3.244,0.384c-6.086,0 -11.595,-4.152 -13.089,-10.331c-1.743,-7.236 2.708,-14.536 9.944,-16.292c16.308,-3.928 38.016,-15.361 49.902,-36.643c7.895,-14.137 11.671,-32.659 6.248,-56.389c-1.653,-7.247 2.878,-14.475 10.114,-16.147l0.001,0Z" style="fill:#fff;fill-rule:nonzero;" />
            <path d="M885.793,233.371c6.419,-3.763 14.667,-1.637 18.444,4.798c0.001,0.002 0.003,0.004 0.004,0.007c15.2,25.85 19.638,53.232 12.463,79.25c-0.002,0.007 -0.004,0.014 -0.005,0.02c-7.119,26.019 -25.894,49.46 -50.061,62.785c-2.071,1.136 -4.285,1.677 -6.495,1.677c-4.756,-0 -9.364,-2.528 -11.839,-6.974c-3.567,-6.553 -1.2,-14.75 5.313,-18.351c13.923,-7.662 30.92,-23.867 37.074,-46.285c5.163,-18.695 2.093,-38.404 -9.701,-58.464c-0,-0.001 -0,-0.001 -0.001,-0.002c-3.772,-6.414 -1.62,-14.68 4.804,-18.461l-0,0Z" style="fill:#fff;fill-rule:nonzero;" />
            <path d="M689.56,713.59c7.442,0.373 13.215,6.67 12.879,14.109c-3.016,64.395 -51.772,97.186 -99.869,97.186l-4.304,-0.105c-7.443,-0.291 -13.228,-6.566 -12.925,-14.015c0.302,-7.379 6.702,-13.34 13.832,-12.929c0.125,0.007 0.25,0.012 0.375,0.015c24.306,0.512 73.191,-12.555 75.919,-71.424c0.355,-7.421 6.612,-13.158 14.093,-12.837Z" style="fill:#fff;fill-rule:nonzero;" />
            <path d="M560.397,444.683c20.545,-8.379 38.456,-23.965 46.791,-42.645c6.282,-14.079 7.481,-29.897 1.413,-46.261c-0.002,-0.005 -0.003,-0.01 -0.005,-0.015c-5.689,-15.287 -16.011,-26.464 -30.905,-32.917c-17.593,-7.622 -40.402,-8.523 -62.17,0.36c-19.188,7.827 -34.951,23.527 -43.746,40.608c-0.004,0.008 -0.009,0.016 -0.013,0.025c-5.011,9.789 -11.747,29.268 -4.223,49.5c6.56,17.666 20.514,27.31 31.285,31.976c18.3,7.929 40.764,7.876 61.573,-0.631l0,0Z" style="fill:#62b14e;" />
            <path d="M317.825,607.199c21.802,-4.119 42.459,-15.825 54.347,-32.47c8.961,-12.546 13.286,-27.809 10.599,-45.053c-0,-0.005 -0.001,-0.01 -0.002,-0.016c-2.529,-16.114 -10.418,-29.123 -23.729,-38.413c-15.723,-10.974 -37.895,-16.4 -60.996,-12.03c-20.362,3.848 -38.936,16.094 -50.958,31.08c-0.006,0.008 -0.012,0.015 -0.017,0.022c-6.861,8.595 -17.342,26.342 -13.998,47.667c2.909,18.619 14.663,30.849 24.289,37.567c16.354,11.415 38.378,15.838 60.465,11.646l-0,0Z" style="fill:#62b14e;" />
            <path d="M466.045,377.955c0,0 19.631,-21.027 53.359,-36.302c36.812,-16.67 58.966,-18.532 58.966,-18.532c12.623,5.506 21.212,13.668 26.561,23.963c-0,0 -40.584,14.798 -72.265,29.58c-22.344,10.425 -62.823,40.974 -63.342,40.982c-4.573,0.073 -8.955,-39.376 -3.279,-39.691Z" style="fill:#ff9300;" />
            <g>
                <g id="Stroke-82">
                    <path d="M757.809,239.455c-2.442,0.389 -4.44,-1.273 -5.929,-2.758c-3.782,-3.79 -5.298,-9.061 -3.54,-12.528c1.167,-2.34 3.408,-3.99 5.755,-4.364c1.221,-0.195 2.308,-0.024 3.193,0.093c0.698,0.147 1.382,0.21 2.039,0.106c0.563,-0.09 1.006,-0.333 1.623,-0.69c0.805,-0.387 1.784,-0.888 3.193,-1.113c2.066,-0.329 4.386,0.334 6.157,1.774c0.215,0.138 0.349,0.375 0.295,0.642c-0.054,0.267 -0.121,0.45 -0.376,0.663c-1.556,1.11 -2.254,2.772 -1.798,4.422c0.376,1.749 1.824,2.982 3.702,3.285c0.295,0.039 0.51,0.177 0.644,0.414c0.134,0.238 0.161,0.406 0.107,0.672c-0.456,1.365 -0.644,1.998 -1.315,3.225c-1.113,2.073 -2.495,4.275 -4.749,4.634c-1.033,0.165 -1.731,0.018 -2.334,-0.144c-0.604,-0.162 -1.207,-0.324 -2.334,-0.145c-1.033,0.165 -1.556,0.507 -2.173,0.864c-0.51,0.426 -1.127,0.783 -2.16,0.948Z" style="fill:#424242;fill-rule:nonzero;" />
                </g>
                <g id="Stroke-83">
                    <path d="M758.442,219.283c-0.094,0.015 -0.094,0.015 -0.188,0.03c-0.47,0.075 -0.899,-0.201 -1.046,-0.522c-0.51,-1.383 -0.215,-3.153 0.792,-4.692c0.925,-1.439 2.669,-2.579 4.333,-3.017c0.469,-0.075 0.979,0.102 1.153,0.591c0.523,1.468 0.215,3.153 -0.792,4.692c-0.818,1.509 -2.562,2.649 -4.252,2.918Z" style="fill:#424242;fill-rule:nonzero;" />
                </g>
            </g>
            <path d="M238.654,523.015c0,0 23.426,-16.696 59.52,-24.946c39.395,-9.005 61.476,-6.416 61.476,-6.416c11.274,7.91 18.065,17.619 21.256,28.773c-0,0 -42.719,6.418 -76.709,14.593c-23.972,5.766 -69.725,27.64 -70.236,27.545c-4.495,-0.84 -0.932,-40.371 4.693,-39.549Z" style="fill:#007aff;" />
            <path d="M583.874,300.246c20.323,8.805 36.062,25.645 44.189,47.548c0.001,0.004 0.002,0.007 0.004,0.011c17.894,48.109 -8.367,99.056 -59.162,119.799c-0,-0 -0,-0 -0,-0c-25.053,10.232 -52.866,10.446 -76.282,0.301c-20.813,-9.017 -36.735,-25.458 -44.604,-46.592c-8.418,-22.668 -6.367,-48.48 5.163,-70.927c0,-0 0,-0 0,-0c11.305,-22.008 30.546,-39.29 53.989,-48.853c0.003,-0.001 0.006,-0.002 0.009,-0.003c26.233,-10.735 53.468,-11.347 76.694,-1.284Zm-23.477,144.437c20.545,-8.379 38.456,-23.965 46.791,-42.645c6.282,-14.079 7.481,-29.897 1.413,-46.261c-0.002,-0.005 -0.003,-0.01 -0.005,-0.015c-5.689,-15.287 -16.011,-26.464 -30.905,-32.917c-17.593,-7.622 -40.402,-8.523 -62.17,0.36c-19.188,7.827 -34.951,23.527 -43.746,40.608c-0.004,0.008 -0.009,0.016 -0.013,0.025c-5.011,9.789 -11.747,29.268 -4.223,49.5c6.56,17.666 20.514,27.31 31.285,31.976c18.3,7.929 40.764,7.876 61.573,-0.631l0,0Z" style="fill:#fff;" />
            <path d="M369.601,470.332c18.162,12.677 30.23,32.314 33.832,55.397c0,0.004 0.001,0.008 0.002,0.012c7.953,50.709 -27.929,95.404 -81.838,105.614c-0,0 -0,0 -0.001,0c-26.588,5.037 -53.886,-0.293 -74.812,-14.898c-18.6,-12.982 -30.929,-32.265 -34.431,-54.543c-3.734,-23.891 3.417,-48.778 19.187,-68.478c0.001,-0 0.001,-0 0.001,-0c15.461,-19.315 37.759,-32.418 62.637,-37.12c0.003,-0.001 0.006,-0.001 0.01,-0.002c27.845,-5.294 54.656,-0.469 75.413,14.018Zm-51.776,136.867c21.802,-4.119 42.459,-15.825 54.347,-32.47c8.961,-12.546 13.286,-27.809 10.599,-45.053c-0,-0.005 -0.001,-0.01 -0.002,-0.016c-2.529,-16.114 -10.418,-29.123 -23.729,-38.413c-15.723,-10.974 -37.895,-16.4 -60.996,-12.03c-20.362,3.848 -38.936,16.094 -50.958,31.08c-0.006,0.008 -0.012,0.015 -0.017,0.022c-6.861,8.595 -17.342,26.342 -13.998,47.667c2.909,18.619 14.663,30.849 24.289,37.567c16.354,11.415 38.378,15.838 60.465,11.646l-0,0Z" style="fill:#fff;" />
            <path d="M333.544,575.689c-0.286,4.656 -3.299,8.92 -7.978,10.573c-6.238,2.203 -13.089,-1.064 -15.289,-7.293l12.322,-2.234l10.283,-5.751l0.662,4.705Z" style="fill:#424242;" />
            <path d="M570.243,411.418c0.537,4.634 -1.68,9.362 -5.995,11.811c-5.754,3.266 -13.073,1.253 -16.333,-4.491l11.737,-4.366l9.112,-7.469l1.479,4.515Z" style="fill:#424242;" />
            <path d="M520.622,351.295c-0.65,-2.624 0.452,-5.207 2.631,-6.17c2.178,-0.963 4.83,-0.04 6.334,2.206l1.797,2.684c0.939,1.403 2.105,2.618 3.431,3.575l1.543,1.114c0.962,0.695 1.789,1.595 2.426,2.634c0.91,-0.302 1.958,-0.002 2.703,0.791l1.682,1.792c0.848,0.904 1.117,2.247 0.667,3.327l-1.655,3.971c-0.481,1.156 -1.663,1.72 -2.855,1.363l-1.583,-0.474c-0.021,-0.006 -0.042,-0.013 -0.062,-0.019c-0.487,0.423 -1.039,0.778 -1.651,1.049l-3.614,1.598c-0.613,0.271 -1.247,0.44 -1.888,0.515c-0.009,0.02 -0.018,0.04 -0.027,0.059l-0.715,1.49c-0.538,1.122 -1.751,1.616 -2.93,1.194l-4.05,-1.448c-1.102,-0.394 -1.915,-1.497 -2.012,-2.732l-0.193,-2.45c-0.086,-1.085 0.397,-2.062 1.233,-2.532c-0.34,-1.17 -0.45,-2.388 -0.316,-3.567l0.215,-1.891c0.184,-1.625 0.07,-3.304 -0.335,-4.944l-0.776,-3.135Zm14.983,8.078c-0.197,0.414 -0.293,0.895 -0.264,1.402l0.205,3.607c-0.413,0.653 -0.995,1.172 -1.703,1.485l-2.375,1.051c-0.708,0.312 -1.483,0.394 -2.245,0.259l-2.53,-2.579c-0.356,-0.362 -0.776,-0.615 -1.215,-0.748c-0.209,-0.578 -0.321,-1.191 -0.323,-1.807l-0.014,-5.185l0.017,0.008c2.283,1.06 4.744,-0.029 5.498,-2.43l0.005,-0.018l3.825,3.5c0.454,0.416 0.832,0.911 1.119,1.455Zm-6.736,-7.852l-0.933,-2.111l-1.555,0.688l0.616,1.394c0.364,-0.069 0.743,-0.086 1.129,-0.047l0.743,0.076Zm-3.427,0.659l-0.616,-1.394l-1.555,0.687l0.933,2.111l0.444,-0.601c0.231,-0.312 0.498,-0.581 0.794,-0.803Zm-2.631,14.327c-0.318,0.141 -0.506,0.488 -0.476,0.877l0.194,2.45c0.032,0.412 0.303,0.779 0.67,0.911l4.051,1.448c0.393,0.14 0.797,-0.025 0.976,-0.398l0.715,-1.49c0.178,-0.372 0.088,-0.855 -0.22,-1.168l-3.148,-3.208c-0.267,-0.272 -0.642,-0.359 -0.953,-0.222l-1.809,0.8Zm17.523,-7.081c-0.267,-0.284 -0.65,-0.378 -0.968,-0.238l-1.81,0.8c-0.311,0.138 -0.498,0.473 -0.477,0.853l0.254,4.489c0.025,0.438 0.321,0.83 0.716,0.948l1.583,0.474c0.397,0.119 0.791,-0.069 0.952,-0.455l1.655,-3.97c0.15,-0.36 0.06,-0.808 -0.223,-1.109l-1.682,-1.792Zm-14.289,-5.166c0.491,-0.664 1.264,-1.006 2.086,-0.922l0.944,0.096l-0.073,0.235c-0.452,1.441 -1.929,2.094 -3.299,1.458l-0.223,-0.103l0.565,-0.764Z" style="fill:#424242;" />
            <path d="M287.76,510.656l9.94,-3.571l2.104,9.873l-10.219,2.234l-1.824,-8.536l-0.001,-0Zm12.277,7.441l2.109,9.881l-10.531,0.769l-1.816,-8.542l10.237,-2.108l0.001,0Zm-1.14,-11.457l13.152,-4.866l2.532,11.911l-13.549,2.993l-2.135,-10.038Zm15.976,8.4l2.517,11.858l-13.979,0.971l-2.138,-9.961l13.6,-2.868Z" style="fill:#fff;fill-rule:nonzero;" />

            <ellipse cx="510.275" cy="404.2" rx="5.67" ry="6.344" style="fill:#424242;" />
            <ellipse cx="277.624" cy="560.969" rx="5.67" ry="6.344" style="fill:#424242;" />
            <ellipse cx="345.168" cy="544.291" rx="5.67" ry="6.344" style="fill:#424242;" />
            <ellipse cx="578.987" cy="370.664" rx="5.67" ry="6.344" style="fill:#424242;" />
            <ellipse cx="714.074" cy="281.439" rx="5.67" ry="6.344" style="fill:#424242;" />

        </g>
    </a>

</svg>