<?xml version="1.0" encoding="UTF-8" standalone="no"?>
<!DOCTYPE svg PUBLIC "-//W3C//DTD SVG 1.1//EN" "http://www.w3.org/Graphics/SVG/1.1/DTD/svg11.dtd">
<svg width="100%" height="100%" viewBox="0 0 100 100" version="1.1" xmlns="http://www.w3.org/2000/svg" xmlns:xlink="http://www.w3.org/1999/xlink" xml:space="preserve" xmlns:serif="http://www.serif.com/" style="fill-rule:evenodd;clip-rule:evenodd;stroke-linejoin:round;stroke-miterlimit:2;">
    <g>
        <path d="M92.372,19.036C92.44,18.557 92.396,18.069 92.244,17.61C91.735,16.069 90.513,12.375 89.928,10.607C89.719,9.974 89.313,9.423 88.769,9.036C87.799,8.345 86.174,7.188 84.929,6.301C83.884,5.557 82.492,5.523 81.412,6.216C78.063,8.367 71.157,12.803 70.926,12.951C70.913,12.959 70.896,12.956 70.886,12.944C70.876,12.932 70.877,12.915 70.887,12.904C70.88,12.89 70.871,12.876 70.871,12.876C70.871,12.876 70.871,12.876 70.871,12.876C70.864,12.873 65.446,10.391 63.999,9.728C63.765,9.621 63.519,9.543 63.267,9.496C61.06,9.085 50,7.024 50,7.024L50,8.721C50,8.721 60.335,11.024 62.486,11.503C62.744,11.561 62.994,11.651 63.23,11.771C64.258,12.296 67.251,13.824 68.678,14.553C69.185,14.811 69.612,15.203 69.914,15.686C72.187,19.326 82.158,35.297 83.605,37.614C83.721,37.801 83.818,37.999 83.893,38.206C84.474,39.808 87.138,47.152 88.092,49.783C88.315,50.396 88.341,51.062 88.167,51.69C87.278,54.905 84.418,65.242 83.432,68.806C83.215,69.589 82.703,70.258 82.003,70.671C78.543,72.715 68.041,78.918 68.041,78.918L63.587,80.476L66.868,71.726L66.868,65.797L59.875,54.343L55.682,52.774L50,52.335L49.996,52.335L44.7,52.806L40.123,54.364C40.123,54.364 39.686,48.603 39.497,46.124C39.445,45.435 39.033,44.824 38.413,44.518C38.413,44.518 38.413,44.518 38.412,44.518C38.352,44.488 38.289,44.461 38.225,44.438C37.658,44.228 34.703,43.134 32.912,42.472C32.092,42.168 31.17,42.446 30.654,43.152C29.132,45.234 26.098,49.384 25.53,50.159C25.469,50.244 25.401,50.323 25.327,50.396C24.976,50.743 23.877,51.829 23.177,52.521C22.79,52.903 22.58,53.43 22.597,53.975C22.651,55.653 22.771,59.36 22.824,61.011C22.84,61.535 23.068,62.031 23.454,62.387C24.305,63.171 25.848,64.592 26.684,65.361C27.053,65.701 27.539,65.886 28.041,65.878C29.639,65.852 33.13,65.796 33.13,65.796L33.13,71.725L36.412,80.475L31.959,78.917C31.959,78.917 21.456,72.714 17.996,70.67C17.296,70.257 16.784,69.588 16.567,68.805C15.581,65.241 12.721,54.904 11.832,51.689C11.658,51.061 11.684,50.395 11.907,49.782C12.861,47.151 15.526,39.807 16.107,38.205C16.182,37.998 16.279,37.8 16.395,37.613C17.842,35.296 27.814,19.327 30.087,15.686C30.388,15.204 30.815,14.812 31.321,14.554C32.748,13.825 35.741,12.297 36.769,11.772C37.005,11.652 37.255,11.562 37.513,11.504C39.646,11.029 49.821,8.762 49.998,8.723C49.999,8.722 50,8.721 50,8.72C50,8.685 50,8.282 50,7.877C50,7.667 50.162,7.159 50,7.024C49.838,6.889 49.368,7.142 49.161,7.18C46.54,7.669 38.569,9.154 36.732,9.496C36.48,9.543 36.234,9.621 36,9.728C34.552,10.391 29.126,12.876 29.126,12.876C29.126,12.876 29.112,12.899 29.099,12.921C29.073,12.931 29.043,12.928 29.019,12.912C28.352,12.457 22.318,8.315 19.296,6.241C18.261,5.53 16.901,5.505 15.84,6.178C14.423,7.076 12.482,8.307 11.34,9.031C10.728,9.42 10.269,10.008 10.041,10.697C9.446,12.497 8.257,16.095 7.756,17.61C7.604,18.069 7.56,18.557 7.628,19.036C7.887,20.863 8.563,25.625 8.822,27.449C8.89,27.927 9.067,28.382 9.339,28.78C10.262,30.13 12.51,33.417 13.791,35.291C14.377,36.147 14.501,37.237 14.124,38.203C13.014,41.047 10.679,47.03 9.797,49.291C9.57,49.871 9.521,50.506 9.657,51.114C10.423,54.553 13.091,66.527 13.964,70.447C14.143,71.25 14.63,71.951 15.32,72.398C20.407,75.694 42.03,89.706 48.294,93.764C49.332,94.437 50.668,94.437 51.706,93.764C57.97,89.706 79.593,75.694 84.68,72.398C85.37,71.951 85.857,71.25 86.036,70.447C86.909,66.527 89.576,54.554 90.342,51.114C90.478,50.506 90.429,49.871 90.202,49.291C89.32,47.03 86.985,41.049 85.874,38.205C85.497,37.238 85.621,36.148 86.207,35.291C87.489,33.417 89.737,30.131 90.661,28.781C90.933,28.383 91.11,27.928 91.178,27.45C91.437,25.625 92.113,20.863 92.372,19.036ZM50,86.662L44.058,85.312L38.335,79.329L42.268,81.145L47.628,80.902L50,79.499L49.954,75.808L49.954,71.729C49.954,71.404 49.825,71.093 49.595,70.864C49.365,70.635 49.053,70.508 48.728,70.51C47.387,70.518 45.358,70.531 44.824,70.535C44.736,70.535 44.648,70.545 44.562,70.565C44.056,70.679 42.218,71.096 41.887,71.171C41.855,71.178 41.822,71.169 41.798,71.147C41.772,71.123 41.733,71.087 41.683,71.042C41.461,70.838 41.125,70.82 40.882,70.999C40.639,71.178 40.556,71.504 40.684,71.777C41.025,72.5 41.354,73.202 41.573,73.667C41.739,74.019 42.062,74.27 42.443,74.345C44.23,74.693 49.351,75.692 49.351,75.692L49.397,77.872L42.232,79.64L38.101,79.082L38.04,79.019L34.954,71.417L34.744,66.22L39.906,55.98L44.662,53.633L49.999,52.864L50,52.802L50,52.866L55.724,53.601L60.092,55.981L65.254,66.221L65.044,71.418L61.958,79.02L61.897,79.083L57.766,79.641L50.602,77.873L50.556,75.693C50.556,75.693 55.677,74.694 57.464,74.346C57.845,74.271 58.168,74.02 58.333,73.669C58.551,73.206 58.879,72.51 59.217,71.79C59.347,71.516 59.264,71.188 59.019,71.009C58.775,70.829 58.437,70.847 58.214,71.052C58.212,71.054 58.21,71.055 58.208,71.057C58.122,71.136 58.002,71.168 57.888,71.142C57.354,71.021 55.804,70.67 55.346,70.566C55.26,70.546 55.172,70.536 55.084,70.536C54.55,70.532 52.521,70.519 51.181,70.511C50.856,70.509 50.544,70.636 50.314,70.865C50.084,71.094 49.954,71.405 49.954,71.73C49.954,73.297 49.954,75.809 49.954,75.809L50,79.5L52.37,80.903L57.731,81.146L61.663,79.33L55.941,85.313L50,86.662Z" style="fill:white;fill-rule:nonzero;stroke:black;stroke-opacity:0;stroke-width:1px;"/>
        <path d="M64.027,43.604L66.698,42.616C67.747,42.228 68.926,42.583 69.586,43.486C71.194,45.685 74.021,49.552 74.491,50.195C74.536,50.256 74.585,50.314 74.639,50.367C74.977,50.701 76.289,51.998 76.986,52.687C77.266,52.964 77.419,53.346 77.406,53.741L77.396,54.052L86.31,58.376L85.562,61.16L77.229,59.292L77.167,61.237C77.155,61.618 76.99,61.977 76.71,62.235C75.859,63.019 73.992,64.739 73.158,65.508C72.89,65.754 72.538,65.889 72.174,65.883C70.701,65.859 66.868,65.797 66.868,65.797L66.244,64.591L61.451,56.564L59.908,54.458C59.908,54.458 60.292,48.929 60.484,46.341L36.163,12.082L37.002,11.644L64.027,43.604Z" style="fill:rgb(151,88,191);fill-rule:nonzero;stroke:black;stroke-opacity:0;stroke-width:1px;"/>
    </g>
</svg>
