<?xml version="1.0" encoding="UTF-8" standalone="no"?><!DOCTYPE svg PUBLIC "-//W3C//DTD SVG 1.1//EN" "http://www.w3.org/Graphics/SVG/1.1/DTD/svg11.dtd"><svg width="100%" height="100%" viewBox="0 0 1000 1000" version="1.1" xmlns="http://www.w3.org/2000/svg" xmlns:xlink="http://www.w3.org/1999/xlink" xml:space="preserve" xmlns:serif="http://www.serif.com/" style="fill-rule:evenodd;clip-rule:evenodd;stroke-linecap:square;stroke-linejoin:round;stroke-miterlimit:1.5;"><path d="M272.929,926.311c-20.241,-0 -36.657,16.497 -36.657,36.844c-0,16.28 10.502,30.09 25.071,34.963c1.829,0.341 2.422,-0.802 2.422,-1.772l0,-6.859c-10.197,2.229 -12.32,-4.348 -12.32,-4.348c-1.668,-4.258 -4.072,-5.391 -4.072,-5.391c-3.327,-2.288 0.254,-2.239 0.254,-2.239c3.681,0.258 5.617,3.799 5.617,3.799c3.269,5.631 8.575,4.003 10.668,3.061c0.327,-2.38 1.277,-4.007 2.327,-4.925c-8.141,-0.937 -16.7,-4.096 -16.7,-18.211c-0,-4.025 1.433,-7.31 3.776,-9.889c-0.379,-0.931 -1.635,-4.68 0.357,-9.752c-0,0 3.079,-0.989 10.084,3.777c2.923,-0.817 6.058,-1.225 9.173,-1.241c3.116,0.016 6.254,0.424 9.183,1.241c6.999,-4.766 10.072,-3.777 10.072,-3.777c1.995,5.076 0.739,8.824 0.36,9.752c2.352,2.579 3.773,5.867 3.773,9.889c-0,14.152 -8.575,17.268 -16.737,18.18c1.313,1.142 2.514,3.384 2.514,6.822l-0,10.111c-0,0.98 0.586,2.131 2.447,1.769c14.556,-4.879 25.046,-18.687 25.046,-34.96c0,-20.347 -16.413,-36.844 -36.658,-36.844Z" style="fill:#fff;fill-rule:nonzero;"/><path d="M504.027,810.058l-0,153.097l-188.44,0" style="fill:none;stroke:#fff;stroke-width:7.55px;"/><g><path d="M875.894,166.957c0.596,-4.2 0.213,-8.48 -1.118,-12.507c-4.468,-13.512 -15.183,-45.913 -20.311,-61.42c-1.837,-5.556 -5.398,-10.382 -10.164,-13.777c-8.51,-6.06 -22.765,-16.213 -33.688,-23.992c-9.162,-6.525 -21.374,-6.818 -30.838,-0.739c-29.372,18.863 -89.951,57.769 -91.973,59.068c-0.116,0.069 -0.265,0.043 -0.351,-0.061c-0.085,-0.105 -0.081,-0.257 0.011,-0.357c-0.066,-0.119 -0.14,-0.238 -0.142,-0.242c0,0 0,0 0,0c-0.065,-0.03 -47.584,-21.796 -60.274,-27.609c-2.049,-0.938 -4.205,-1.621 -6.42,-2.034c-19.352,-3.606 -116.357,-21.682 -116.357,-21.682l0,14.883c0,0 90.646,20.199 109.509,24.403c2.266,0.505 4.459,1.294 6.527,2.35c9.012,4.601 35.267,18.003 47.786,24.394c4.445,2.269 8.189,5.704 10.832,9.937c19.936,31.931 107.391,172.004 120.08,192.328c1.022,1.636 1.869,3.376 2.527,5.19c5.096,14.05 28.461,78.461 36.833,101.541c1.948,5.371 2.177,11.216 0.653,16.724c-7.799,28.19 -32.883,118.86 -41.53,150.115c-1.901,6.87 -6.392,12.734 -12.529,16.359c-30.346,17.923 -122.457,72.329 -122.457,72.329l-39.065,13.664l28.777,-76.742l-0,-52.001l-61.333,-100.459l-36.775,-13.761l-49.835,-3.85l-0.035,0l-46.449,4.131l-40.143,13.665c0,-0 -3.836,-50.527 -5.486,-72.267c-0.46,-6.047 -4.077,-11.402 -9.514,-14.086c-0.001,-0.001 -0.002,-0.001 -0.003,-0.002c-0.534,-0.263 -1.082,-0.499 -1.64,-0.706c-4.972,-1.839 -30.898,-11.431 -46.603,-17.242c-7.192,-2.661 -15.277,-0.226 -19.804,5.965c-13.349,18.259 -39.96,54.657 -44.935,61.462c-0.54,0.738 -1.138,1.432 -1.789,2.075c-3.075,3.04 -12.711,12.565 -18.849,18.633c-3.397,3.357 -5.24,7.979 -5.087,12.753c0.474,14.716 1.519,47.234 1.984,61.711c0.148,4.601 2.139,8.951 5.526,12.069c7.469,6.878 21.002,19.339 28.331,26.089c3.238,2.981 7.499,4.605 11.9,4.533c14.015,-0.226 44.636,-0.722 44.636,-0.722l0,52.001l28.785,76.743l-39.055,-13.665c-0,0 -92.118,-54.405 -122.465,-72.329c-6.138,-3.625 -10.63,-9.489 -12.53,-16.359c-8.647,-31.255 -33.731,-121.923 -41.53,-150.114c-1.524,-5.508 -1.295,-11.354 0.654,-16.726c8.374,-23.081 31.744,-87.492 36.841,-101.54c0.658,-1.814 1.505,-3.553 2.527,-5.19c12.688,-20.321 100.145,-160.385 120.08,-192.311c2.643,-4.233 6.386,-7.667 10.83,-9.936c12.516,-6.39 38.766,-19.792 47.778,-24.393c2.068,-1.057 4.262,-1.847 6.529,-2.352c18.702,-4.167 107.944,-24.052 109.496,-24.397c0.012,-0.003 0.02,-0.014 0.02,-0.026c0,-0.304 0,-3.84 0,-7.387c0,-1.849 1.422,-6.303 0,-7.484c-1.422,-1.182 -5.54,1.032 -7.357,1.371c-22.99,4.283 -92.903,17.31 -109.01,20.311c-2.214,0.413 -4.369,1.096 -6.417,2.033c-12.7,5.816 -60.293,27.61 -60.293,27.61c-0,0 -0.125,0.205 -0.238,0.392c-0.231,0.093 -0.494,0.064 -0.699,-0.077c-5.853,-3.994 -58.777,-40.32 -85.275,-58.508c-9.083,-6.235 -21.009,-6.452 -30.314,-0.552c-12.424,7.878 -29.454,18.677 -39.468,25.026c-5.371,3.406 -9.397,8.567 -11.393,14.606c-5.22,15.791 -15.651,47.347 -20.043,60.634c-1.331,4.026 -1.714,8.306 -1.118,12.504c2.273,16.022 8.2,57.791 10.47,73.792c0.594,4.187 2.145,8.18 4.532,11.67c8.097,11.84 27.81,40.666 39.051,57.104c5.135,7.508 6.228,17.069 2.921,25.543c-9.737,24.947 -30.218,77.418 -37.957,97.244c-1.987,5.091 -2.414,10.658 -1.225,15.992c6.72,30.166 30.115,135.18 37.775,169.562c1.569,7.043 5.841,13.188 11.897,17.112c44.609,28.907 234.26,151.798 289.195,187.394c9.105,5.9 20.827,5.9 29.933,0c54.934,-35.596 244.583,-158.486 289.194,-187.393c6.056,-3.924 10.329,-10.07 11.897,-17.114c7.658,-34.382 31.048,-139.393 37.767,-169.56c1.188,-5.335 0.761,-10.902 -1.226,-15.993c-7.74,-19.824 -28.222,-72.285 -37.962,-97.231c-3.309,-8.476 -2.216,-18.04 2.922,-25.55c11.245,-16.437 30.962,-45.259 39.063,-57.099c2.388,-3.492 3.94,-7.486 4.534,-11.674c2.27,-16.004 8.196,-57.775 10.469,-73.797Zm-371.625,593.12l-52.115,-11.84l-50.194,-52.474l34.495,15.927l47.01,-2.131l20.804,-12.305l-0.4,-32.37l-0,-35.782c-0,-2.846 -1.135,-5.574 -3.154,-7.581c-2.019,-2.006 -4.755,-3.124 -7.601,-3.106c-11.759,0.074 -29.56,0.185 -34.243,0.215c-0.772,0.005 -1.542,0.093 -2.295,0.264c-4.441,1.006 -20.56,4.659 -23.459,5.316c-0.28,0.064 -0.574,-0.015 -0.787,-0.209c-0.23,-0.211 -0.57,-0.524 -1.002,-0.92c-1.951,-1.79 -4.897,-1.95 -7.031,-0.381c-2.133,1.569 -2.859,4.428 -1.732,6.825c2.985,6.347 5.878,12.498 7.798,16.58c1.449,3.083 4.282,5.29 7.625,5.942c15.674,3.057 60.592,11.82 60.592,11.82l0.401,19.117l-62.842,15.506l-36.231,-4.894l-0.535,-0.552l-27.066,-66.674l-1.842,-45.581l45.274,-89.811l41.713,-20.585l46.808,-6.744l0.009,-0.544l0,0.561l50.203,6.447l38.31,20.874l45.274,89.811l-1.842,45.58l-27.066,66.674l-0.535,0.553l-36.231,4.894l-62.833,-15.506l-0.4,-19.117c-0,-0 44.915,-8.763 60.585,-11.821c3.342,-0.652 6.174,-2.857 7.624,-5.938c1.91,-4.058 4.783,-10.163 7.753,-16.472c1.133,-2.408 0.405,-5.281 -1.739,-6.858c-2.143,-1.577 -5.102,-1.417 -7.064,0.381c-0.016,0.015 -0.032,0.029 -0.048,0.044c-0.757,0.694 -1.807,0.973 -2.808,0.746c-4.681,-1.061 -18.277,-4.143 -22.299,-5.055c-0.753,-0.171 -1.523,-0.26 -2.296,-0.265c-4.682,-0.029 -22.477,-0.141 -34.234,-0.214c-2.846,-0.018 -5.581,1.1 -7.6,3.106c-2.019,2.006 -3.154,4.735 -3.154,7.581c-0,13.745 -0,35.782 -0,35.782l0.4,32.369l20.787,12.305l47.019,2.132l34.486,-15.928l-50.186,52.475l-52.106,11.831Z" style="fill:#fff;fill-rule:nonzero;stroke:#000;stroke-opacity:0;stroke-width:8.77px;stroke-linecap:butt;stroke-miterlimit:2;"/><path d="M627.294,382.435l23.431,-8.669c9.199,-3.404 19.54,-0.289 25.328,7.63c14.097,19.285 38.894,53.207 43.016,58.846c0.392,0.536 0.826,1.039 1.298,1.506c2.961,2.927 14.473,14.306 20.583,20.347c2.462,2.433 3.799,5.783 3.688,9.243l-0.087,2.731l78.178,37.926l-6.561,24.414l-73.084,-16.383l-0.544,17.062c-0.107,3.336 -1.55,6.49 -4.005,8.751c-7.463,6.876 -23.839,21.963 -31.156,28.704c-2.348,2.163 -5.438,3.34 -8.63,3.289c-12.917,-0.209 -46.537,-0.753 -46.537,-0.753l-5.472,-10.574l-42.037,-70.402l-13.533,-18.476c0,0 3.366,-48.488 5.047,-71.192l-213.307,-300.466l7.357,-3.841l237.027,280.307Z" style="fill:#9457cb;fill-rule:nonzero;stroke:#000;stroke-opacity:0;stroke-width:8.77px;stroke-linecap:butt;stroke-miterlimit:2;"/></g></svg>